<svg width="897" height="149" viewBox="0 0 897 149" fill="none" xmlns="http://www.w3.org/2000/svg">
<path d="M3.57574 61.2772V54.4932H9.46375V23.3892H3.57574V16.6052H23.8637V23.3892H17.9117V54.4932H23.8637V61.2772H3.57574ZM46.4672 13.9172H54.6592V33.3732H54.9152C55.5126 31.4532 56.6432 29.9386 58.3072 28.8292C59.9712 27.6772 61.9126 27.1012 64.1312 27.1012C68.3979 27.1012 71.6406 28.6159 73.8592 31.6452C76.1206 34.6319 77.2512 38.9199 77.2512 44.5092C77.2512 50.1412 76.1206 54.4719 73.8592 57.5012C71.6406 60.5306 68.3979 62.0452 64.1312 62.0452C61.9126 62.0452 59.9712 61.4692 58.3072 60.3172C56.6859 59.1652 55.5552 57.6292 54.9152 55.7092H54.6592V61.2772H46.4672V13.9172ZM61.5072 55.2612C63.6406 55.2612 65.3686 54.5572 66.6912 53.1492C68.0139 51.7412 68.6752 49.8426 68.6752 47.4532V41.6932C68.6752 39.3039 68.0139 37.4052 66.6912 35.9972C65.3686 34.5466 63.6406 33.8212 61.5072 33.8212C59.5446 33.8212 57.9019 34.3119 56.5792 35.2932C55.2992 36.2746 54.6592 37.5759 54.6592 39.1972V49.8212C54.6592 51.5706 55.2992 52.9146 56.5792 53.8532C57.9019 54.7919 59.5446 55.2612 61.5072 55.2612ZM104.49 55.7092H104.17C103.872 56.5626 103.466 57.3732 102.954 58.1412C102.485 58.8666 101.866 59.5279 101.098 60.1252C100.373 60.7226 99.4769 61.1919 98.4102 61.5332C97.3862 61.8746 96.1916 62.0452 94.8262 62.0452C91.3702 62.0452 88.7249 60.9146 86.8902 58.6532C85.0556 56.3919 84.1382 53.1706 84.1382 48.9892V27.8692H92.3302V48.1572C92.3302 50.4612 92.7782 52.2319 93.6742 53.4692C94.5702 54.6639 95.9996 55.2612 97.9622 55.2612C98.7729 55.2612 99.5622 55.1546 100.33 54.9412C101.141 54.7279 101.845 54.4079 102.442 53.9812C103.04 53.5119 103.53 52.9572 103.914 52.3172C104.298 51.6346 104.49 50.8452 104.49 49.9492V27.8692H112.682V61.2772H104.49V55.7092ZM125.923 23.0052C124.217 23.0052 122.979 22.6212 122.211 21.8532C121.486 21.0852 121.123 20.1039 121.123 18.9092V17.6292C121.123 16.4346 121.486 15.4532 122.211 14.6852C122.979 13.9172 124.217 13.5332 125.923 13.5332C127.587 13.5332 128.803 13.9172 129.571 14.6852C130.339 15.4532 130.723 16.4346 130.723 17.6292V18.9092C130.723 20.1039 130.339 21.0852 129.571 21.8532C128.803 22.6212 127.587 23.0052 125.923 23.0052ZM121.827 27.8692H130.019V61.2772H121.827V27.8692ZM147.387 61.2772C144.571 61.2772 142.501 60.5732 141.179 59.1652C139.856 57.7572 139.195 55.7732 139.195 53.2132V13.9172H147.387V54.7492H151.803V61.2772H147.387ZM178.423 55.7092H178.103C177.506 57.6292 176.375 59.1652 174.711 60.3172C173.047 61.4692 171.106 62.0452 168.887 62.0452C164.663 62.0452 161.421 60.5306 159.159 57.5012C156.941 54.4719 155.831 50.1412 155.831 44.5092C155.831 38.9199 156.941 34.6319 159.159 31.6452C161.421 28.6159 164.663 27.1012 168.887 27.1012C171.106 27.1012 173.047 27.6772 174.711 28.8292C176.375 29.9386 177.506 31.4532 178.103 33.3732H178.423V13.9172H186.615V61.2772H178.423V55.7092ZM171.511 55.2612C173.474 55.2612 175.117 54.7919 176.439 53.8532C177.762 52.9146 178.423 51.5706 178.423 49.8212V39.1972C178.423 37.5759 177.762 36.2746 176.439 35.2932C175.117 34.3119 173.474 33.8212 171.511 33.8212C169.378 33.8212 167.65 34.5466 166.327 35.9972C165.047 37.4052 164.407 39.3039 164.407 41.6932V47.4532C164.407 49.8426 165.047 51.7412 166.327 53.1492C167.65 54.5572 169.378 55.2612 171.511 55.2612ZM607.328 135.277V101.869H615.52V108.781H615.84C616.054 107.885 616.374 107.032 616.8 106.221C617.27 105.368 617.867 104.621 618.592 103.981C619.318 103.341 620.171 102.829 621.152 102.445C622.176 102.061 623.35 101.869 624.672 101.869H626.464V109.613H623.904C621.131 109.613 619.04 110.019 617.632 110.829C616.224 111.64 615.52 112.963 615.52 114.797V135.277H607.328ZM645.325 136.045C642.85 136.045 640.632 135.64 638.669 134.829C636.749 133.976 635.106 132.803 633.741 131.309C632.418 129.773 631.394 127.939 630.669 125.805C629.944 123.629 629.581 121.197 629.581 118.509C629.581 115.864 629.922 113.475 630.605 111.341C631.33 109.208 632.354 107.395 633.677 105.901C635 104.365 636.621 103.192 638.541 102.381C640.461 101.528 642.637 101.101 645.069 101.101C647.672 101.101 649.933 101.549 651.853 102.445C653.773 103.341 655.352 104.557 656.589 106.093C657.826 107.629 658.744 109.421 659.341 111.469C659.981 113.475 660.301 115.629 660.301 117.933V120.621H638.093V121.453C638.093 123.885 638.776 125.848 640.141 127.341C641.506 128.792 643.533 129.517 646.221 129.517C648.269 129.517 649.933 129.091 651.213 128.237C652.536 127.384 653.709 126.296 654.733 124.973L659.149 129.901C657.784 131.821 655.906 133.336 653.517 134.445C651.17 135.512 648.44 136.045 645.325 136.045ZM645.197 107.245C643.021 107.245 641.293 107.971 640.013 109.421C638.733 110.872 638.093 112.749 638.093 115.053V115.565H651.789V114.989C651.789 112.685 651.213 110.829 650.061 109.421C648.952 107.971 647.33 107.245 645.197 107.245ZM678.132 136.045C674.932 136.045 672.244 135.512 670.068 134.445C667.892 133.336 665.972 131.821 664.308 129.901L669.3 125.037C670.538 126.445 671.882 127.555 673.332 128.365C674.826 129.176 676.532 129.581 678.452 129.581C680.415 129.581 681.823 129.24 682.676 128.557C683.572 127.875 684.02 126.936 684.02 125.741C684.02 124.76 683.7 123.992 683.06 123.437C682.463 122.84 681.418 122.435 679.924 122.221L676.596 121.773C672.97 121.304 670.196 120.28 668.276 118.701C666.399 117.08 665.46 114.733 665.46 111.661C665.46 110.04 665.759 108.589 666.356 107.309C666.954 105.987 667.807 104.877 668.916 103.981C670.026 103.043 671.348 102.339 672.884 101.869C674.463 101.357 676.212 101.101 678.132 101.101C679.754 101.101 681.183 101.229 682.42 101.485C683.7 101.699 684.852 102.04 685.876 102.509C686.9 102.936 687.839 103.491 688.692 104.173C689.546 104.813 690.378 105.539 691.188 106.349L686.388 111.149C685.407 110.125 684.234 109.272 682.868 108.589C681.503 107.907 680.01 107.565 678.388 107.565C676.596 107.565 675.295 107.885 674.484 108.525C673.716 109.165 673.332 109.997 673.332 111.021C673.332 112.131 673.652 112.984 674.292 113.581C674.975 114.136 676.106 114.541 677.684 114.797L681.076 115.245C688.287 116.269 691.892 119.555 691.892 125.101C691.892 126.723 691.551 128.216 690.868 129.581C690.228 130.904 689.311 132.056 688.116 133.037C686.922 133.976 685.471 134.723 683.764 135.277C682.1 135.789 680.223 136.045 678.132 136.045ZM718.774 129.709H718.454C718.155 130.563 717.75 131.373 717.238 132.141C716.769 132.867 716.15 133.528 715.382 134.125C714.657 134.723 713.761 135.192 712.694 135.533C711.67 135.875 710.475 136.045 709.11 136.045C705.654 136.045 703.009 134.915 701.174 132.653C699.339 130.392 698.422 127.171 698.422 122.989V101.869H706.614V122.157C706.614 124.461 707.062 126.232 707.958 127.469C708.854 128.664 710.283 129.261 712.246 129.261C713.057 129.261 713.846 129.155 714.614 128.941C715.425 128.728 716.129 128.408 716.726 127.981C717.323 127.512 717.814 126.957 718.198 126.317C718.582 125.635 718.774 124.845 718.774 123.949V101.869H726.966V135.277H718.774V129.709ZM744.303 135.277C741.487 135.277 739.418 134.573 738.095 133.165C736.772 131.757 736.111 129.773 736.111 127.213V87.9172H744.303V128.749H748.719V135.277H744.303ZM764.723 135.277C761.907 135.277 759.752 134.552 758.259 133.101C756.808 131.608 756.083 129.496 756.083 126.765V108.397H751.155V101.869H753.715C754.952 101.869 755.784 101.592 756.211 101.037C756.68 100.44 756.915 99.5652 756.915 98.4132V92.7172H764.275V101.869H771.123V108.397H764.275V128.749H770.611V135.277H764.723ZM788.852 136.045C785.652 136.045 782.964 135.512 780.788 134.445C778.612 133.336 776.692 131.821 775.028 129.901L780.02 125.037C781.258 126.445 782.602 127.555 784.052 128.365C785.546 129.176 787.252 129.581 789.172 129.581C791.135 129.581 792.543 129.24 793.396 128.557C794.292 127.875 794.74 126.936 794.74 125.741C794.74 124.76 794.42 123.992 793.78 123.437C793.183 122.84 792.138 122.435 790.644 122.221L787.316 121.773C783.69 121.304 780.916 120.28 778.996 118.701C777.119 117.08 776.18 114.733 776.18 111.661C776.18 110.04 776.479 108.589 777.076 107.309C777.674 105.987 778.527 104.877 779.636 103.981C780.746 103.043 782.068 102.339 783.604 101.869C785.183 101.357 786.932 101.101 788.852 101.101C790.474 101.101 791.903 101.229 793.14 101.485C794.42 101.699 795.572 102.04 796.596 102.509C797.62 102.936 798.559 103.491 799.412 104.173C800.266 104.813 801.098 105.539 801.908 106.349L797.108 111.149C796.127 110.125 794.954 109.272 793.588 108.589C792.223 107.907 790.73 107.565 789.108 107.565C787.316 107.565 786.015 107.885 785.204 108.525C784.436 109.165 784.052 109.997 784.052 111.021C784.052 112.131 784.372 112.984 785.012 113.581C785.695 114.136 786.826 114.541 788.404 114.797L791.796 115.245C799.007 116.269 802.612 119.555 802.612 125.101C802.612 126.723 802.271 128.216 801.588 129.581C800.948 130.904 800.031 132.056 798.836 133.037C797.642 133.976 796.191 134.723 794.484 135.277C792.82 135.789 790.943 136.045 788.852 136.045Z" fill="#F0F0F0"/>
<path d="M235.123 61.2775C233.331 61.2775 231.902 60.7655 230.835 59.7415C229.811 58.6749 229.171 57.2669 228.915 55.5175H228.531C227.977 57.6935 226.846 59.3362 225.139 60.4455C223.433 61.5122 221.321 62.0455 218.803 62.0455C215.39 62.0455 212.766 61.1495 210.931 59.3575C209.097 57.5655 208.179 55.1762 208.179 52.1895C208.179 48.7335 209.417 46.1735 211.891 44.5095C214.366 42.8029 217.886 41.9495 222.451 41.9495H228.147V39.5175C228.147 37.6402 227.657 36.1895 226.675 35.1655C225.694 34.1415 224.115 33.6295 221.939 33.6295C220.019 33.6295 218.462 34.0562 217.267 34.9095C216.115 35.7202 215.134 36.7015 214.323 37.8535L209.459 33.5015C210.697 31.5815 212.339 30.0455 214.387 28.8935C216.435 27.6989 219.145 27.1015 222.515 27.1015C227.038 27.1015 230.473 28.1255 232.819 30.1735C235.166 32.2215 236.339 35.1655 236.339 39.0055V54.7495H239.667V61.2775H235.123ZM221.555 56.0935C223.39 56.0935 224.947 55.6882 226.227 54.8775C227.507 54.0669 228.147 52.8722 228.147 51.2935V46.8775H222.899C218.633 46.8775 216.499 48.2429 216.499 50.9735V52.0615C216.499 53.4269 216.926 54.4509 217.779 55.1335C218.675 55.7735 219.934 56.0935 221.555 56.0935ZM245.977 61.2775V27.8695H254.169V33.4375H254.489C255.172 31.6455 256.239 30.1522 257.689 28.9575C259.183 27.7202 261.231 27.1015 263.833 27.1015C267.289 27.1015 269.935 28.2322 271.769 30.4935C273.604 32.7549 274.521 35.9762 274.521 40.1575V61.2775H266.329V40.9895C266.329 38.6002 265.903 36.8082 265.049 35.6135C264.196 34.4189 262.788 33.8215 260.825 33.8215C259.972 33.8215 259.14 33.9495 258.329 34.2055C257.561 34.4189 256.857 34.7602 256.217 35.2295C255.62 35.6562 255.129 36.2109 254.745 36.8935C254.361 37.5335 254.169 38.3015 254.169 39.1975V61.2775H245.977ZM304.018 55.7095H303.698C303.101 57.6295 301.97 59.1655 300.306 60.3175C298.642 61.4695 296.701 62.0455 294.482 62.0455C290.258 62.0455 287.016 60.5309 284.754 57.5015C282.536 54.4722 281.426 50.1415 281.426 44.5095C281.426 38.9202 282.536 34.6322 284.754 31.6455C287.016 28.6162 290.258 27.1015 294.482 27.1015C296.701 27.1015 298.642 27.6775 300.306 28.8295C301.97 29.9389 303.101 31.4535 303.698 33.3735H304.018V13.9175H312.21V61.2775H304.018V55.7095ZM297.106 55.2615C299.069 55.2615 300.712 54.7922 302.034 53.8535C303.357 52.9149 304.018 51.5709 304.018 49.8215V39.1975C304.018 37.5762 303.357 36.2749 302.034 35.2935C300.712 34.3122 299.069 33.8215 297.106 33.8215C294.973 33.8215 293.245 34.5469 291.922 35.9975C290.642 37.4055 290.002 39.3042 290.002 41.6935V47.4535C290.002 49.8429 290.642 51.7415 291.922 53.1495C293.245 54.5575 294.973 55.2615 297.106 55.2615ZM344.334 61.2775C341.518 61.2775 339.449 60.5735 338.126 59.1655C336.804 57.7575 336.142 55.7735 336.142 53.2135V13.9175H344.334V54.7495H348.75V61.2775H344.334ZM368.139 62.0455C365.664 62.0455 363.445 61.6402 361.483 60.8295C359.563 59.9762 357.92 58.8029 356.555 57.3095C355.232 55.7735 354.208 53.9389 353.483 51.8055C352.757 49.6295 352.395 47.1975 352.395 44.5095C352.395 41.8642 352.736 39.4749 353.419 37.3415C354.144 35.2082 355.168 33.3949 356.491 31.9015C357.813 30.3655 359.435 29.1922 361.355 28.3815C363.275 27.5282 365.451 27.1015 367.883 27.1015C370.485 27.1015 372.747 27.5495 374.667 28.4455C376.587 29.3415 378.165 30.5575 379.403 32.0935C380.64 33.6295 381.557 35.4215 382.155 37.4695C382.795 39.4749 383.115 41.6295 383.115 43.9335V46.6215H360.907V47.4535C360.907 49.8855 361.589 51.8482 362.955 53.3415C364.32 54.7922 366.347 55.5175 369.035 55.5175C371.083 55.5175 372.747 55.0909 374.027 54.2375C375.349 53.3842 376.523 52.2962 377.547 50.9735L381.963 55.9015C380.597 57.8215 378.72 59.3362 376.331 60.4455C373.984 61.5122 371.253 62.0455 368.139 62.0455ZM368.011 33.2455C365.835 33.2455 364.107 33.9709 362.827 35.4215C361.547 36.8722 360.907 38.7495 360.907 41.0535V41.5655H374.603V40.9895C374.603 38.6855 374.027 36.8295 372.875 35.4215C371.765 33.9709 370.144 33.2455 368.011 33.2455ZM414.578 61.2775C412.786 61.2775 411.357 60.7655 410.29 59.7415C409.266 58.6749 408.626 57.2669 408.37 55.5175H407.986C407.432 57.6935 406.301 59.3362 404.594 60.4455C402.888 61.5122 400.776 62.0455 398.258 62.0455C394.845 62.0455 392.221 61.1495 390.386 59.3575C388.552 57.5655 387.634 55.1762 387.634 52.1895C387.634 48.7335 388.872 46.1735 391.346 44.5095C393.821 42.8029 397.341 41.9495 401.906 41.9495H407.602V39.5175C407.602 37.6402 407.112 36.1895 406.13 35.1655C405.149 34.1415 403.57 33.6295 401.394 33.6295C399.474 33.6295 397.917 34.0562 396.722 34.9095C395.57 35.7202 394.589 36.7015 393.778 37.8535L388.914 33.5015C390.152 31.5815 391.794 30.0455 393.842 28.8935C395.89 27.6989 398.6 27.1015 401.97 27.1015C406.493 27.1015 409.928 28.1255 412.274 30.1735C414.621 32.2215 415.794 35.1655 415.794 39.0055V54.7495H419.122V61.2775H414.578ZM401.01 56.0935C402.845 56.0935 404.402 55.6882 405.682 54.8775C406.962 54.0669 407.602 52.8722 407.602 51.2935V46.8775H402.354C398.088 46.8775 395.954 48.2429 395.954 50.9735V52.0615C395.954 53.4269 396.381 54.4509 397.234 55.1335C398.13 55.7735 399.389 56.0935 401.01 56.0935ZM446.168 55.7095H445.848C445.251 57.6295 444.12 59.1655 442.456 60.3175C440.792 61.4695 438.851 62.0455 436.632 62.0455C432.408 62.0455 429.166 60.5309 426.904 57.5015C424.686 54.4722 423.576 50.1415 423.576 44.5095C423.576 38.9202 424.686 34.6322 426.904 31.6455C429.166 28.6162 432.408 27.1015 436.632 27.1015C438.851 27.1015 440.792 27.6775 442.456 28.8295C444.12 29.9389 445.251 31.4535 445.848 33.3735H446.168V13.9175H454.36V61.2775H446.168V55.7095ZM439.256 55.2615C441.219 55.2615 442.862 54.7922 444.184 53.8535C445.507 52.9149 446.168 51.5709 446.168 49.8215V39.1975C446.168 37.5762 445.507 36.2749 444.184 35.2935C442.862 34.3122 441.219 33.8215 439.256 33.8215C437.123 33.8215 435.395 34.5469 434.072 35.9975C432.792 37.4055 432.152 39.3042 432.152 41.6935V47.4535C432.152 49.8429 432.792 51.7415 434.072 53.1495C435.395 54.5575 437.123 55.2615 439.256 55.2615ZM491.476 62.0455C489.002 62.0455 486.804 61.6402 484.884 60.8295C482.964 60.0189 481.343 58.8455 480.02 57.3095C478.74 55.7735 477.759 53.9389 477.076 51.8055C476.394 49.6295 476.052 47.1975 476.052 44.5095C476.052 41.8215 476.394 39.4109 477.076 37.2775C477.759 35.1442 478.74 33.3309 480.02 31.8375C481.343 30.3015 482.964 29.1282 484.884 28.3175C486.804 27.5069 489.002 27.1015 491.476 27.1015C494.847 27.1015 497.62 27.8482 499.796 29.3415C502.015 30.8349 503.615 32.9042 504.596 35.5495L497.876 38.5575C497.492 37.1495 496.767 35.9975 495.7 35.1015C494.676 34.1629 493.268 33.6935 491.476 33.6935C489.172 33.6935 487.444 34.4189 486.292 35.8695C485.183 37.3202 484.628 39.2189 484.628 41.5655V47.6455C484.628 49.9922 485.183 51.8909 486.292 53.3415C487.444 54.7495 489.172 55.4535 491.476 55.4535C493.439 55.4535 494.954 54.9629 496.02 53.9815C497.087 52.9575 497.919 51.6989 498.516 50.2055L504.788 53.2135C503.679 56.1575 501.994 58.3762 499.732 59.8695C497.471 61.3202 494.719 62.0455 491.476 62.0455ZM523.72 62.0455C521.331 62.0455 519.176 61.6402 517.256 60.8295C515.379 60.0189 513.758 58.8455 512.392 57.3095C511.07 55.7735 510.046 53.9389 509.32 51.8055C508.595 49.6295 508.232 47.1975 508.232 44.5095C508.232 41.8215 508.595 39.4109 509.32 37.2775C510.046 35.1442 511.07 33.3309 512.392 31.8375C513.758 30.3015 515.379 29.1282 517.256 28.3175C519.176 27.5069 521.331 27.1015 523.72 27.1015C526.11 27.1015 528.264 27.5069 530.184 28.3175C532.104 29.1282 533.726 30.3015 535.048 31.8375C536.414 33.3309 537.459 35.1442 538.184 37.2775C538.91 39.4109 539.272 41.8215 539.272 44.5095C539.272 47.1975 538.91 49.6295 538.184 51.8055C537.459 53.9389 536.414 55.7735 535.048 57.3095C533.726 58.8455 532.104 60.0189 530.184 60.8295C528.264 61.6402 526.11 62.0455 523.72 62.0455ZM523.72 55.4535C525.896 55.4535 527.603 54.7922 528.84 53.4695C530.078 52.1469 530.696 50.2055 530.696 47.6455V41.4375C530.696 38.9202 530.078 37.0002 528.84 35.6775C527.603 34.3549 525.896 33.6935 523.72 33.6935C521.587 33.6935 519.902 34.3549 518.664 35.6775C517.427 37.0002 516.808 38.9202 516.808 41.4375V47.6455C516.808 50.2055 517.427 52.1469 518.664 53.4695C519.902 54.7922 521.587 55.4535 523.72 55.4535ZM546.215 61.2775V27.8695H554.407V33.4375H554.727C555.409 31.6455 556.476 30.1522 557.927 28.9575C559.42 27.7202 561.468 27.1015 564.071 27.1015C567.527 27.1015 570.172 28.2322 572.007 30.4935C573.841 32.7549 574.759 35.9762 574.759 40.1575V61.2775H566.567V40.9895C566.567 38.6002 566.14 36.8082 565.287 35.6135C564.433 34.4189 563.025 33.8215 561.063 33.8215C560.209 33.8215 559.377 33.9495 558.567 34.2055C557.799 34.4189 557.095 34.7602 556.455 35.2295C555.857 35.6562 555.367 36.2109 554.983 36.8935C554.599 37.5335 554.407 38.3015 554.407 39.1975V61.2775H546.215ZM593.952 61.2775C591.136 61.2775 588.981 60.5522 587.488 59.1015C586.037 57.6082 585.312 55.4962 585.312 52.7655V34.3975H580.384V27.8695H582.944C584.181 27.8695 585.013 27.5922 585.44 27.0375C585.909 26.4402 586.144 25.5655 586.144 24.4135V18.7175H593.504V27.8695H600.352V34.3975H593.504V54.7495H599.84V61.2775H593.952ZM620.391 62.0455C617.917 62.0455 615.698 61.6402 613.735 60.8295C611.815 59.9762 610.173 58.8029 608.807 57.3095C607.485 55.7735 606.461 53.9389 605.735 51.8055C605.01 49.6295 604.647 47.1975 604.647 44.5095C604.647 41.8642 604.989 39.4749 605.671 37.3415C606.397 35.2082 607.421 33.3949 608.743 31.9015C610.066 30.3655 611.687 29.1922 613.607 28.3815C615.527 27.5282 617.703 27.1015 620.135 27.1015C622.738 27.1015 624.999 27.5495 626.919 28.4455C628.839 29.3415 630.418 30.5575 631.655 32.0935C632.893 33.6295 633.81 35.4215 634.407 37.4695C635.047 39.4749 635.367 41.6295 635.367 43.9335V46.6215H613.159V47.4535C613.159 49.8855 613.842 51.8482 615.207 53.3415C616.573 54.7922 618.599 55.5175 621.287 55.5175C623.335 55.5175 624.999 55.0909 626.279 54.2375C627.602 53.3842 628.775 52.2962 629.799 50.9735L634.215 55.9015C632.85 57.8215 630.973 59.3362 628.583 60.4455C626.237 61.5122 623.506 62.0455 620.391 62.0455ZM620.263 33.2455C618.087 33.2455 616.359 33.9709 615.079 35.4215C613.799 36.8722 613.159 38.7495 613.159 41.0535V41.5655H626.855V40.9895C626.855 38.6855 626.279 36.8295 625.127 35.4215C624.018 33.9709 622.397 33.2455 620.263 33.2455ZM642.255 61.2775V27.8695H650.447V33.4375H650.767C651.449 31.6455 652.516 30.1522 653.967 28.9575C655.46 27.7202 657.508 27.1015 660.111 27.1015C663.567 27.1015 666.212 28.2322 668.047 30.4935C669.881 32.7549 670.799 35.9762 670.799 40.1575V61.2775H662.607V40.9895C662.607 38.6002 662.18 36.8082 661.327 35.6135C660.473 34.4189 659.065 33.8215 657.103 33.8215C656.249 33.8215 655.417 33.9495 654.607 34.2055C653.839 34.4189 653.135 34.7602 652.495 35.2295C651.897 35.6562 651.407 36.2109 651.023 36.8935C650.639 37.5335 650.447 38.3015 650.447 39.1975V61.2775H642.255ZM689.992 61.2775C687.176 61.2775 685.021 60.5522 683.528 59.1015C682.077 57.6082 681.352 55.4962 681.352 52.7655V34.3975H676.424V27.8695H678.984C680.221 27.8695 681.053 27.5922 681.48 27.0375C681.949 26.4402 682.184 25.5655 682.184 24.4135V18.7175H689.544V27.8695H696.392V34.3975H689.544V54.7495H695.88V61.2775H689.992ZM728.414 61.2775C725.598 61.2775 723.444 60.5522 721.95 59.1015C720.5 57.6082 719.774 55.4962 719.774 52.7655V34.3975H714.846V27.8695H717.406C718.644 27.8695 719.476 27.5922 719.902 27.0375C720.372 26.4402 720.606 25.5655 720.606 24.4135V18.7175H727.966V27.8695H734.814V34.3975H727.966V54.7495H734.302V61.2775H728.414ZM754.854 62.0455C752.379 62.0455 750.16 61.6402 748.198 60.8295C746.278 59.9762 744.635 58.8029 743.27 57.3095C741.947 55.7735 740.923 53.9389 740.198 51.8055C739.472 49.6295 739.11 47.1975 739.11 44.5095C739.11 41.8642 739.451 39.4749 740.134 37.3415C740.859 35.2082 741.883 33.3949 743.206 31.9015C744.528 30.3655 746.15 29.1922 748.07 28.3815C749.99 27.5282 752.166 27.1015 754.598 27.1015C757.2 27.1015 759.462 27.5495 761.382 28.4455C763.302 29.3415 764.88 30.5575 766.118 32.0935C767.355 33.6295 768.272 35.4215 768.87 37.4695C769.51 39.4749 769.83 41.6295 769.83 43.9335V46.6215H747.622V47.4535C747.622 49.8855 748.304 51.8482 749.67 53.3415C751.035 54.7922 753.062 55.5175 755.75 55.5175C757.798 55.5175 759.462 55.0909 760.742 54.2375C762.064 53.3842 763.238 52.2962 764.262 50.9735L768.678 55.9015C767.312 57.8215 765.435 59.3362 763.046 60.4455C760.699 61.5122 757.968 62.0455 754.854 62.0455ZM754.726 33.2455C752.55 33.2455 750.822 33.9709 749.542 35.4215C748.262 36.8722 747.622 38.7495 747.622 41.0535V41.5655H761.318V40.9895C761.318 38.6855 760.742 36.8295 759.59 35.4215C758.48 33.9709 756.859 33.2455 754.726 33.2455ZM801.293 61.2775C799.501 61.2775 798.072 60.7655 797.005 59.7415C795.981 58.6749 795.341 57.2669 795.085 55.5175H794.701C794.147 57.6935 793.016 59.3362 791.309 60.4455C789.603 61.5122 787.491 62.0455 784.973 62.0455C781.56 62.0455 778.936 61.1495 777.101 59.3575C775.267 57.5655 774.349 55.1762 774.349 52.1895C774.349 48.7335 775.587 46.1735 778.061 44.5095C780.536 42.8029 784.056 41.9495 788.621 41.9495H794.317V39.5175C794.317 37.6402 793.827 36.1895 792.845 35.1655C791.864 34.1415 790.285 33.6295 788.109 33.6295C786.189 33.6295 784.632 34.0562 783.437 34.9095C782.285 35.7202 781.304 36.7015 780.493 37.8535L775.629 33.5015C776.867 31.5815 778.509 30.0455 780.557 28.8935C782.605 27.6989 785.315 27.1015 788.685 27.1015C793.208 27.1015 796.643 28.1255 798.989 30.1735C801.336 32.2215 802.509 35.1655 802.509 39.0055V54.7495H805.837V61.2775H801.293ZM787.725 56.0935C789.56 56.0935 791.117 55.6882 792.397 54.8775C793.677 54.0669 794.317 52.8722 794.317 51.2935V46.8775H789.069C784.803 46.8775 782.669 48.2429 782.669 50.9735V52.0615C782.669 53.4269 783.096 54.4509 783.949 55.1335C784.845 55.7735 786.104 56.0935 787.725 56.0935ZM812.147 61.2775V27.8695H820.339V33.4375H820.659C821.299 31.6882 822.323 30.1949 823.731 28.9575C825.139 27.7202 827.102 27.1015 829.619 27.1015C831.923 27.1015 833.907 27.6562 835.571 28.7655C837.235 29.8749 838.473 31.5602 839.283 33.8215H839.411C840.009 31.9442 841.182 30.3655 842.931 29.0855C844.723 27.7629 846.963 27.1015 849.651 27.1015C852.937 27.1015 855.454 28.2322 857.203 30.4935C858.995 32.7549 859.891 35.9762 859.891 40.1575V61.2775H851.699V40.9895C851.699 36.2109 849.907 33.8215 846.323 33.8215C845.513 33.8215 844.723 33.9495 843.955 34.2055C843.23 34.4189 842.569 34.7602 841.971 35.2295C841.417 35.6562 840.969 36.2109 840.627 36.8935C840.286 37.5335 840.115 38.3015 840.115 39.1975V61.2775H831.923V40.9895C831.923 36.2109 830.131 33.8215 826.547 33.8215C825.779 33.8215 825.011 33.9495 824.243 34.2055C823.518 34.4189 822.857 34.7602 822.259 35.2295C821.705 35.6562 821.235 36.2109 820.851 36.8935C820.51 37.5335 820.339 38.3015 820.339 39.1975V61.2775H812.147ZM879.584 62.0455C876.384 62.0455 873.696 61.5122 871.52 60.4455C869.344 59.3362 867.424 57.8215 865.76 55.9015L870.752 51.0375C871.989 52.4455 873.333 53.5549 874.784 54.3655C876.277 55.1762 877.984 55.5815 879.904 55.5815C881.866 55.5815 883.274 55.2402 884.128 54.5575C885.024 53.8749 885.472 52.9362 885.472 51.7415C885.472 50.7602 885.152 49.9922 884.512 49.4375C883.914 48.8402 882.869 48.4349 881.376 48.2215L878.048 47.7735C874.421 47.3042 871.648 46.2802 869.728 44.7015C867.85 43.0802 866.912 40.7335 866.912 37.6615C866.912 36.0402 867.21 34.5895 867.808 33.3095C868.405 31.9869 869.258 30.8775 870.368 29.9815C871.477 29.0429 872.8 28.3389 874.336 27.8695C875.914 27.3575 877.664 27.1015 879.584 27.1015C881.205 27.1015 882.634 27.2295 883.872 27.4855C885.152 27.6989 886.304 28.0402 887.328 28.5095C888.352 28.9362 889.29 29.4909 890.144 30.1735C890.997 30.8135 891.829 31.5389 892.64 32.3495L887.84 37.1495C886.858 36.1255 885.685 35.2722 884.32 34.5895C882.954 33.9069 881.461 33.5655 879.84 33.5655C878.048 33.5655 876.746 33.8855 875.936 34.5255C875.168 35.1655 874.784 35.9975 874.784 37.0215C874.784 38.1309 875.104 38.9842 875.744 39.5815C876.426 40.1362 877.557 40.5415 879.136 40.7975L882.528 41.2455C889.738 42.2695 893.344 45.5549 893.344 51.1015C893.344 52.7229 893.002 54.2162 892.32 55.5815C891.68 56.9042 890.762 58.0562 889.568 59.0375C888.373 59.9762 886.922 60.7229 885.216 61.2775C883.552 61.7895 881.674 62.0455 879.584 62.0455ZM106.083 135.277C103.267 135.277 101.112 134.552 99.6189 133.101C98.1683 131.608 97.4429 129.496 97.4429 126.765V108.397H92.5149V101.869H95.0749C96.3123 101.869 97.1443 101.592 97.5709 101.037C98.0403 100.44 98.2749 99.5655 98.2749 98.4135V92.7175H105.635V101.869H112.483V108.397H105.635V128.749H111.971V135.277H106.083ZM132.266 136.045C129.877 136.045 127.722 135.64 125.802 134.829C123.925 134.019 122.304 132.845 120.938 131.309C119.616 129.773 118.592 127.939 117.866 125.805C117.141 123.629 116.778 121.197 116.778 118.509C116.778 115.821 117.141 113.411 117.866 111.277C118.592 109.144 119.616 107.331 120.938 105.837C122.304 104.301 123.925 103.128 125.802 102.317C127.722 101.507 129.877 101.101 132.266 101.101C134.656 101.101 136.81 101.507 138.73 102.317C140.65 103.128 142.272 104.301 143.594 105.837C144.96 107.331 146.005 109.144 146.73 111.277C147.456 113.411 147.818 115.821 147.818 118.509C147.818 121.197 147.456 123.629 146.73 125.805C146.005 127.939 144.96 129.773 143.594 131.309C142.272 132.845 140.65 134.019 138.73 134.829C136.81 135.64 134.656 136.045 132.266 136.045ZM132.266 129.453C134.442 129.453 136.149 128.792 137.386 127.469C138.624 126.147 139.242 124.205 139.242 121.645V115.437C139.242 112.92 138.624 111 137.386 109.677C136.149 108.355 134.442 107.693 132.266 107.693C130.133 107.693 128.448 108.355 127.21 109.677C125.973 111 125.354 112.92 125.354 115.437V121.645C125.354 124.205 125.973 126.147 127.21 127.469C128.448 128.792 130.133 129.453 132.266 129.453ZM190.302 129.709H189.982C189.385 131.629 188.254 133.165 186.59 134.317C184.926 135.469 182.985 136.045 180.766 136.045C176.542 136.045 173.299 134.531 171.038 131.501C168.819 128.472 167.71 124.141 167.71 118.509C167.71 112.92 168.819 108.632 171.038 105.645C173.299 102.616 176.542 101.101 180.766 101.101C182.985 101.101 184.926 101.677 186.59 102.829C188.254 103.939 189.385 105.453 189.982 107.373H190.302V87.9175H198.494V135.277H190.302V129.709ZM183.39 129.261C185.353 129.261 186.995 128.792 188.318 127.853C189.641 126.915 190.302 125.571 190.302 123.821V113.197C190.302 111.576 189.641 110.275 188.318 109.293C186.995 108.312 185.353 107.821 183.39 107.821C181.257 107.821 179.529 108.547 178.206 109.997C176.926 111.405 176.286 113.304 176.286 115.693V121.453C176.286 123.843 176.926 125.741 178.206 127.149C179.529 128.557 181.257 129.261 183.39 129.261ZM207.621 135.277V101.869H215.813V108.781H216.133C216.346 107.885 216.666 107.032 217.093 106.221C217.562 105.368 218.16 104.621 218.885 103.981C219.61 103.341 220.464 102.829 221.445 102.445C222.469 102.061 223.642 101.869 224.965 101.869H226.757V109.613H224.197C221.424 109.613 219.333 110.019 217.925 110.829C216.517 111.64 215.813 112.963 215.813 114.797V135.277H207.621ZM236.522 97.0055C234.815 97.0055 233.578 96.6215 232.81 95.8535C232.085 95.0855 231.722 94.1042 231.722 92.9095V91.6295C231.722 90.4349 232.085 89.4535 232.81 88.6855C233.578 87.9175 234.815 87.5335 236.522 87.5335C238.186 87.5335 239.402 87.9175 240.17 88.6855C240.938 89.4535 241.322 90.4349 241.322 91.6295V92.9095C241.322 94.1042 240.938 95.0855 240.17 95.8535C239.402 96.6215 238.186 97.0055 236.522 97.0055ZM232.426 101.869H240.618V135.277H232.426V101.869ZM256.961 135.277L245.825 101.869H253.889L258.561 116.269L261.825 128.173H262.273L265.537 116.269L270.081 101.869H277.889L266.689 135.277H256.961ZM296.04 136.045C293.565 136.045 291.347 135.64 289.384 134.829C287.464 133.976 285.821 132.803 284.456 131.309C283.133 129.773 282.109 127.939 281.384 125.805C280.659 123.629 280.296 121.197 280.296 118.509C280.296 115.864 280.637 113.475 281.32 111.341C282.045 109.208 283.069 107.395 284.392 105.901C285.715 104.365 287.336 103.192 289.256 102.381C291.176 101.528 293.352 101.101 295.784 101.101C298.387 101.101 300.648 101.549 302.568 102.445C304.488 103.341 306.067 104.557 307.304 106.093C308.541 107.629 309.459 109.421 310.056 111.469C310.696 113.475 311.016 115.629 311.016 117.933V120.621H288.808V121.453C288.808 123.885 289.491 125.848 290.856 127.341C292.221 128.792 294.248 129.517 296.936 129.517C298.984 129.517 300.648 129.091 301.928 128.237C303.251 127.384 304.424 126.296 305.448 124.973L309.864 129.901C308.499 131.821 306.621 133.336 304.232 134.445C301.885 135.512 299.155 136.045 296.04 136.045ZM295.912 107.245C293.736 107.245 292.008 107.971 290.728 109.421C289.448 110.872 288.808 112.749 288.808 115.053V115.565H302.504V114.989C302.504 112.685 301.928 110.829 300.776 109.421C299.667 107.971 298.045 107.245 295.912 107.245ZM332.708 87.9175H340.9V107.373H341.156C341.754 105.453 342.884 103.939 344.548 102.829C346.212 101.677 348.154 101.101 350.372 101.101C354.639 101.101 357.882 102.616 360.1 105.645C362.362 108.632 363.492 112.92 363.492 118.509C363.492 124.141 362.362 128.472 360.1 131.501C357.882 134.531 354.639 136.045 350.372 136.045C348.154 136.045 346.212 135.469 344.548 134.317C342.927 133.165 341.796 131.629 341.156 129.709H340.9V135.277H332.708V87.9175ZM347.748 129.261C349.882 129.261 351.61 128.557 352.932 127.149C354.255 125.741 354.916 123.843 354.916 121.453V115.693C354.916 113.304 354.255 111.405 352.932 109.997C351.61 108.547 349.882 107.821 347.748 107.821C345.786 107.821 344.143 108.312 342.82 109.293C341.54 110.275 340.9 111.576 340.9 113.197V123.821C340.9 125.571 341.54 126.915 342.82 127.853C344.143 128.792 345.786 129.261 347.748 129.261ZM390.731 129.709H390.411C390.113 130.563 389.707 131.373 389.195 132.141C388.726 132.867 388.107 133.528 387.339 134.125C386.614 134.723 385.718 135.192 384.651 135.533C383.627 135.875 382.433 136.045 381.067 136.045C377.611 136.045 374.966 134.915 373.131 132.653C371.297 130.392 370.379 127.171 370.379 122.989V101.869H378.571V122.157C378.571 124.461 379.019 126.232 379.915 127.469C380.811 128.664 382.241 129.261 384.203 129.261C385.014 129.261 385.803 129.155 386.571 128.941C387.382 128.728 388.086 128.408 388.683 127.981C389.281 127.512 389.771 126.957 390.155 126.317C390.539 125.635 390.731 124.845 390.731 123.949V101.869H398.923V135.277H390.731V129.709ZM419.012 136.045C415.812 136.045 413.124 135.512 410.948 134.445C408.772 133.336 406.852 131.821 405.188 129.901L410.18 125.037C411.418 126.445 412.762 127.555 414.212 128.365C415.706 129.176 417.412 129.581 419.332 129.581C421.295 129.581 422.703 129.24 423.556 128.557C424.452 127.875 424.9 126.936 424.9 125.741C424.9 124.76 424.58 123.992 423.94 123.437C423.343 122.84 422.298 122.435 420.804 122.221L417.476 121.773C413.85 121.304 411.076 120.28 409.156 118.701C407.279 117.08 406.34 114.733 406.34 111.661C406.34 110.04 406.639 108.589 407.236 107.309C407.834 105.987 408.687 104.877 409.796 103.981C410.906 103.043 412.228 102.339 413.764 101.869C415.343 101.357 417.092 101.101 419.012 101.101C420.634 101.101 422.063 101.229 423.3 101.485C424.58 101.699 425.732 102.04 426.756 102.509C427.78 102.936 428.719 103.491 429.572 104.173C430.426 104.813 431.258 105.539 432.068 106.349L427.268 111.149C426.287 110.125 425.114 109.272 423.748 108.589C422.383 107.907 420.89 107.565 419.268 107.565C417.476 107.565 416.175 107.885 415.364 108.525C414.596 109.165 414.212 109.997 414.212 111.021C414.212 112.131 414.532 112.984 415.172 113.581C415.855 114.136 416.986 114.541 418.564 114.797L421.956 115.245C429.167 116.269 432.772 119.555 432.772 125.101C432.772 126.723 432.431 128.216 431.748 129.581C431.108 130.904 430.191 132.056 428.996 133.037C427.802 133.976 426.351 134.723 424.644 135.277C422.98 135.789 421.103 136.045 419.012 136.045ZM443.782 97.0055C442.075 97.0055 440.838 96.6215 440.07 95.8535C439.345 95.0855 438.982 94.1042 438.982 92.9095V91.6295C438.982 90.4349 439.345 89.4535 440.07 88.6855C440.838 87.9175 442.075 87.5335 443.782 87.5335C445.446 87.5335 446.662 87.9175 447.43 88.6855C448.198 89.4535 448.582 90.4349 448.582 91.6295V92.9095C448.582 94.1042 448.198 95.0855 447.43 95.8535C446.662 96.6215 445.446 97.0055 443.782 97.0055ZM439.686 101.869H447.878V135.277H439.686V101.869ZM457.053 135.277V101.869H465.245V107.437H465.565C466.248 105.645 467.315 104.152 468.765 102.957C470.259 101.72 472.307 101.101 474.909 101.101C478.365 101.101 481.011 102.232 482.845 104.493C484.68 106.755 485.597 109.976 485.597 114.157V135.277H477.405V114.989C477.405 112.6 476.979 110.808 476.125 109.613C475.272 108.419 473.864 107.821 471.901 107.821C471.048 107.821 470.216 107.949 469.405 108.205C468.637 108.419 467.933 108.76 467.293 109.229C466.696 109.656 466.205 110.211 465.821 110.893C465.437 111.533 465.245 112.301 465.245 113.197V135.277H457.053ZM507.862 136.045C505.388 136.045 503.169 135.64 501.206 134.829C499.286 133.976 497.644 132.803 496.278 131.309C494.956 129.773 493.932 127.939 493.206 125.805C492.481 123.629 492.118 121.197 492.118 118.509C492.118 115.864 492.46 113.475 493.142 111.341C493.868 109.208 494.892 107.395 496.214 105.901C497.537 104.365 499.158 103.192 501.078 102.381C502.998 101.528 505.174 101.101 507.606 101.101C510.209 101.101 512.47 101.549 514.39 102.445C516.31 103.341 517.889 104.557 519.126 106.093C520.364 107.629 521.281 109.421 521.878 111.469C522.518 113.475 522.838 115.629 522.838 117.933V120.621H500.63V121.453C500.63 123.885 501.313 125.848 502.678 127.341C504.044 128.792 506.07 129.517 508.758 129.517C510.806 129.517 512.47 129.091 513.75 128.237C515.073 127.384 516.246 126.296 517.27 124.973L521.686 129.901C520.321 131.821 518.444 133.336 516.054 134.445C513.708 135.512 510.977 136.045 507.862 136.045ZM507.734 107.245C505.558 107.245 503.83 107.971 502.55 109.421C501.27 110.872 500.63 112.749 500.63 115.053V115.565H514.326V114.989C514.326 112.685 513.75 110.829 512.598 109.421C511.489 107.971 509.868 107.245 507.734 107.245ZM540.67 136.045C537.47 136.045 534.782 135.512 532.606 134.445C530.43 133.336 528.51 131.821 526.846 129.901L531.838 125.037C533.075 126.445 534.419 127.555 535.87 128.365C537.363 129.176 539.07 129.581 540.99 129.581C542.953 129.581 544.361 129.24 545.214 128.557C546.11 127.875 546.558 126.936 546.558 125.741C546.558 124.76 546.238 123.992 545.598 123.437C545.001 122.84 543.955 122.435 542.462 122.221L539.134 121.773C535.507 121.304 532.734 120.28 530.814 118.701C528.937 117.08 527.998 114.733 527.998 111.661C527.998 110.04 528.297 108.589 528.894 107.309C529.491 105.987 530.345 104.877 531.454 103.981C532.563 103.043 533.886 102.339 535.422 101.869C537.001 101.357 538.75 101.101 540.67 101.101C542.291 101.101 543.721 101.229 544.958 101.485C546.238 101.699 547.39 102.04 548.414 102.509C549.438 102.936 550.377 103.491 551.23 104.173C552.083 104.813 552.915 105.539 553.726 106.349L548.926 111.149C547.945 110.125 546.771 109.272 545.406 108.589C544.041 107.907 542.547 107.565 540.926 107.565C539.134 107.565 537.833 107.885 537.022 108.525C536.254 109.165 535.87 109.997 535.87 111.021C535.87 112.131 536.19 112.984 536.83 113.581C537.513 114.136 538.643 114.541 540.222 114.797L543.614 115.245C550.825 116.269 554.43 119.555 554.43 125.101C554.43 126.723 554.089 128.216 553.406 129.581C552.766 130.904 551.849 132.056 550.654 133.037C549.459 133.976 548.009 134.723 546.302 135.277C544.638 135.789 542.761 136.045 540.67 136.045ZM571.85 136.045C568.65 136.045 565.962 135.512 563.786 134.445C561.61 133.336 559.69 131.821 558.026 129.901L563.018 125.037C564.255 126.445 565.599 127.555 567.05 128.365C568.543 129.176 570.25 129.581 572.17 129.581C574.133 129.581 575.541 129.24 576.394 128.557C577.29 127.875 577.738 126.936 577.738 125.741C577.738 124.76 577.418 123.992 576.778 123.437C576.181 122.84 575.135 122.435 573.642 122.221L570.314 121.773C566.687 121.304 563.914 120.28 561.994 118.701C560.117 117.08 559.178 114.733 559.178 111.661C559.178 110.04 559.477 108.589 560.074 107.309C560.671 105.987 561.525 104.877 562.634 103.981C563.743 103.043 565.066 102.339 566.602 101.869C568.181 101.357 569.93 101.101 571.85 101.101C573.471 101.101 574.901 101.229 576.138 101.485C577.418 101.699 578.57 102.04 579.594 102.509C580.618 102.936 581.557 103.491 582.41 104.173C583.263 104.813 584.095 105.539 584.906 106.349L580.106 111.149C579.125 110.125 577.951 109.272 576.586 108.589C575.221 107.907 573.727 107.565 572.106 107.565C570.314 107.565 569.013 107.885 568.202 108.525C567.434 109.165 567.05 109.997 567.05 111.021C567.05 112.131 567.37 112.984 568.01 113.581C568.693 114.136 569.823 114.541 571.402 114.797L574.794 115.245C582.005 116.269 585.61 119.555 585.61 125.101C585.61 126.723 585.269 128.216 584.586 129.581C583.946 130.904 583.029 132.056 581.834 133.037C580.639 133.976 579.189 134.723 577.482 135.277C575.818 135.789 573.941 136.045 571.85 136.045Z" fill="white"/>
</svg>
