<svg width="897" height="149" viewBox="0 0 897 149" fill="none" xmlns="http://www.w3.org/2000/svg">
<rect x="606" y="85.832" width="199.612" height="52.6858" fill="white"/>
<rect y="9" width="189.224" height="56.3961" fill="white"/>
<path d="M3.57572 61.2773V54.4933H9.46372V23.3893H3.57572V16.6053H23.8637V23.3893H17.9117V54.4933H23.8637V61.2773H3.57572ZM46.4672 13.9173H54.6592V33.3733H54.9152C55.5126 31.4533 56.6432 29.9387 58.3072 28.8293C59.9712 27.6773 61.9126 27.1013 64.1312 27.1013C68.3979 27.1013 71.6406 28.616 73.8592 31.6453C76.1206 34.632 77.2512 38.92 77.2512 44.5093C77.2512 50.1413 76.1206 54.472 73.8592 57.5013C71.6406 60.5307 68.3979 62.0453 64.1312 62.0453C61.9126 62.0453 59.9712 61.4693 58.3072 60.3173C56.6859 59.1653 55.5552 57.6293 54.9152 55.7093H54.6592V61.2773H46.4672V13.9173ZM61.5072 55.2613C63.6406 55.2613 65.3686 54.5573 66.6912 53.1493C68.0139 51.7413 68.6752 49.8427 68.6752 47.4533V41.6933C68.6752 39.304 68.0139 37.4053 66.6912 35.9973C65.3686 34.5467 63.6406 33.8213 61.5072 33.8213C59.5446 33.8213 57.9019 34.312 56.5792 35.2933C55.2992 36.2747 54.6592 37.576 54.6592 39.1973V49.8213C54.6592 51.5707 55.2992 52.9147 56.5792 53.8533C57.9019 54.792 59.5446 55.2613 61.5072 55.2613ZM104.49 55.7093H104.17C103.872 56.5627 103.466 57.3733 102.954 58.1413C102.485 58.8667 101.866 59.528 101.098 60.1253C100.373 60.7227 99.4769 61.192 98.4102 61.5333C97.3862 61.8747 96.1916 62.0453 94.8262 62.0453C91.3702 62.0453 88.7249 60.9147 86.8902 58.6533C85.0556 56.392 84.1382 53.1707 84.1382 48.9893V27.8693H92.3302V48.1573C92.3302 50.4613 92.7782 52.232 93.6742 53.4693C94.5702 54.664 95.9996 55.2613 97.9622 55.2613C98.7729 55.2613 99.5622 55.1547 100.33 54.9413C101.141 54.728 101.845 54.408 102.442 53.9813C103.04 53.512 103.53 52.9573 103.914 52.3173C104.298 51.6347 104.49 50.8453 104.49 49.9493V27.8693H112.682V61.2773H104.49V55.7093ZM125.923 23.0053C124.217 23.0053 122.979 22.6213 122.211 21.8533C121.486 21.0853 121.123 20.104 121.123 18.9093V17.6293C121.123 16.4347 121.486 15.4533 122.211 14.6853C122.979 13.9173 124.217 13.5333 125.923 13.5333C127.587 13.5333 128.803 13.9173 129.571 14.6853C130.339 15.4533 130.723 16.4347 130.723 17.6293V18.9093C130.723 20.104 130.339 21.0853 129.571 21.8533C128.803 22.6213 127.587 23.0053 125.923 23.0053ZM121.827 27.8693H130.019V61.2773H121.827V27.8693ZM147.387 61.2773C144.571 61.2773 142.501 60.5733 141.179 59.1653C139.856 57.7573 139.195 55.7733 139.195 53.2133V13.9173H147.387V54.7493H151.803V61.2773H147.387ZM178.423 55.7093H178.103C177.506 57.6293 176.375 59.1653 174.711 60.3173C173.047 61.4693 171.106 62.0453 168.887 62.0453C164.663 62.0453 161.421 60.5307 159.159 57.5013C156.941 54.472 155.831 50.1413 155.831 44.5093C155.831 38.92 156.941 34.632 159.159 31.6453C161.421 28.616 164.663 27.1013 168.887 27.1013C171.106 27.1013 173.047 27.6773 174.711 28.8293C176.375 29.9387 177.506 31.4533 178.103 33.3733H178.423V13.9173H186.615V61.2773H178.423V55.7093ZM171.511 55.2613C173.474 55.2613 175.117 54.792 176.439 53.8533C177.762 52.9147 178.423 51.5707 178.423 49.8213V39.1973C178.423 37.576 177.762 36.2747 176.439 35.2933C175.117 34.312 173.474 33.8213 171.511 33.8213C169.378 33.8213 167.65 34.5467 166.327 35.9973C165.047 37.4053 164.407 39.304 164.407 41.6933V47.4533C164.407 49.8427 165.047 51.7413 166.327 53.1493C167.65 54.5573 169.378 55.2613 171.511 55.2613ZM607.328 135.277V101.869H615.52V108.781H615.84C616.054 107.885 616.374 107.032 616.8 106.221C617.27 105.368 617.867 104.621 618.592 103.981C619.318 103.341 620.171 102.829 621.152 102.445C622.176 102.061 623.35 101.869 624.672 101.869H626.464V109.613H623.904C621.131 109.613 619.04 110.019 617.632 110.829C616.224 111.64 615.52 112.963 615.52 114.797V135.277H607.328ZM645.325 136.045C642.85 136.045 640.632 135.64 638.669 134.829C636.749 133.976 635.106 132.803 633.741 131.309C632.418 129.773 631.394 127.939 630.669 125.805C629.944 123.629 629.581 121.197 629.581 118.509C629.581 115.864 629.922 113.475 630.605 111.341C631.33 109.208 632.354 107.395 633.677 105.901C635 104.365 636.621 103.192 638.541 102.381C640.461 101.528 642.637 101.101 645.069 101.101C647.672 101.101 649.933 101.549 651.853 102.445C653.773 103.341 655.352 104.557 656.589 106.093C657.826 107.629 658.744 109.421 659.341 111.469C659.981 113.475 660.301 115.629 660.301 117.933V120.621H638.093V121.453C638.093 123.885 638.776 125.848 640.141 127.341C641.506 128.792 643.533 129.517 646.221 129.517C648.269 129.517 649.933 129.091 651.213 128.237C652.536 127.384 653.709 126.296 654.733 124.973L659.149 129.901C657.784 131.821 655.906 133.336 653.517 134.445C651.17 135.512 648.44 136.045 645.325 136.045ZM645.197 107.245C643.021 107.245 641.293 107.971 640.013 109.421C638.733 110.872 638.093 112.749 638.093 115.053V115.565H651.789V114.989C651.789 112.685 651.213 110.829 650.061 109.421C648.952 107.971 647.33 107.245 645.197 107.245ZM678.132 136.045C674.932 136.045 672.244 135.512 670.068 134.445C667.892 133.336 665.972 131.821 664.308 129.901L669.3 125.037C670.538 126.445 671.882 127.555 673.332 128.365C674.826 129.176 676.532 129.581 678.452 129.581C680.415 129.581 681.823 129.24 682.676 128.557C683.572 127.875 684.02 126.936 684.02 125.741C684.02 124.76 683.7 123.992 683.06 123.437C682.463 122.84 681.418 122.435 679.924 122.221L676.596 121.773C672.97 121.304 670.196 120.28 668.276 118.701C666.399 117.08 665.46 114.733 665.46 111.661C665.46 110.04 665.759 108.589 666.356 107.309C666.954 105.987 667.807 104.877 668.916 103.981C670.026 103.043 671.348 102.339 672.884 101.869C674.463 101.357 676.212 101.101 678.132 101.101C679.754 101.101 681.183 101.229 682.42 101.485C683.7 101.699 684.852 102.04 685.876 102.509C686.9 102.936 687.839 103.491 688.692 104.173C689.546 104.813 690.378 105.539 691.188 106.349L686.388 111.149C685.407 110.125 684.234 109.272 682.868 108.589C681.503 107.907 680.01 107.565 678.388 107.565C676.596 107.565 675.295 107.885 674.484 108.525C673.716 109.165 673.332 109.997 673.332 111.021C673.332 112.131 673.652 112.984 674.292 113.581C674.975 114.136 676.106 114.541 677.684 114.797L681.076 115.245C688.287 116.269 691.892 119.555 691.892 125.101C691.892 126.723 691.551 128.216 690.868 129.581C690.228 130.904 689.311 132.056 688.116 133.037C686.922 133.976 685.471 134.723 683.764 135.277C682.1 135.789 680.223 136.045 678.132 136.045ZM718.774 129.709H718.454C718.155 130.563 717.75 131.373 717.238 132.141C716.769 132.867 716.15 133.528 715.382 134.125C714.657 134.723 713.761 135.192 712.694 135.533C711.67 135.875 710.475 136.045 709.11 136.045C705.654 136.045 703.009 134.915 701.174 132.653C699.339 130.392 698.422 127.171 698.422 122.989V101.869H706.614V122.157C706.614 124.461 707.062 126.232 707.958 127.469C708.854 128.664 710.283 129.261 712.246 129.261C713.057 129.261 713.846 129.155 714.614 128.941C715.425 128.728 716.129 128.408 716.726 127.981C717.323 127.512 717.814 126.957 718.198 126.317C718.582 125.635 718.774 124.845 718.774 123.949V101.869H726.966V135.277H718.774V129.709ZM744.303 135.277C741.487 135.277 739.418 134.573 738.095 133.165C736.772 131.757 736.111 129.773 736.111 127.213V87.9173H744.303V128.749H748.719V135.277H744.303ZM764.723 135.277C761.907 135.277 759.752 134.552 758.259 133.101C756.808 131.608 756.083 129.496 756.083 126.765V108.397H751.155V101.869H753.715C754.952 101.869 755.784 101.592 756.211 101.037C756.68 100.44 756.915 99.5653 756.915 98.4133V92.7173H764.275V101.869H771.123V108.397H764.275V128.749H770.611V135.277H764.723ZM788.852 136.045C785.652 136.045 782.964 135.512 780.788 134.445C778.612 133.336 776.692 131.821 775.028 129.901L780.02 125.037C781.258 126.445 782.602 127.555 784.052 128.365C785.546 129.176 787.252 129.581 789.172 129.581C791.135 129.581 792.543 129.24 793.396 128.557C794.292 127.875 794.74 126.936 794.74 125.741C794.74 124.76 794.42 123.992 793.78 123.437C793.183 122.84 792.138 122.435 790.644 122.221L787.316 121.773C783.69 121.304 780.916 120.28 778.996 118.701C777.119 117.08 776.18 114.733 776.18 111.661C776.18 110.04 776.479 108.589 777.076 107.309C777.674 105.987 778.527 104.877 779.636 103.981C780.746 103.043 782.068 102.339 783.604 101.869C785.183 101.357 786.932 101.101 788.852 101.101C790.474 101.101 791.903 101.229 793.14 101.485C794.42 101.699 795.572 102.04 796.596 102.509C797.62 102.936 798.559 103.491 799.412 104.173C800.266 104.813 801.098 105.539 801.908 106.349L797.108 111.149C796.127 110.125 794.954 109.272 793.588 108.589C792.223 107.907 790.73 107.565 789.108 107.565C787.316 107.565 786.015 107.885 785.204 108.525C784.436 109.165 784.052 109.997 784.052 111.021C784.052 112.131 784.372 112.984 785.012 113.581C785.695 114.136 786.826 114.541 788.404 114.797L791.796 115.245C799.007 116.269 802.612 119.555 802.612 125.101C802.612 126.723 802.271 128.216 801.588 129.581C800.948 130.904 800.031 132.056 798.836 133.037C797.642 133.976 796.191 134.723 794.484 135.277C792.82 135.789 790.943 136.045 788.852 136.045Z" fill="black"/>
<path d="M235.123 61.2773C233.331 61.2773 231.902 60.7653 230.835 59.7413C229.811 58.6747 229.171 57.2667 228.915 55.5173H228.531C227.977 57.6933 226.846 59.336 225.139 60.4453C223.433 61.512 221.321 62.0453 218.803 62.0453C215.39 62.0453 212.766 61.1493 210.931 59.3573C209.097 57.5653 208.179 55.176 208.179 52.1893C208.179 48.7333 209.417 46.1733 211.891 44.5093C214.366 42.8027 217.886 41.9493 222.451 41.9493H228.147V39.5173C228.147 37.64 227.657 36.1893 226.675 35.1653C225.694 34.1413 224.115 33.6293 221.939 33.6293C220.019 33.6293 218.462 34.056 217.267 34.9093C216.115 35.72 215.134 36.7013 214.323 37.8533L209.459 33.5013C210.697 31.5813 212.339 30.0453 214.387 28.8933C216.435 27.6987 219.145 27.1013 222.515 27.1013C227.038 27.1013 230.473 28.1253 232.819 30.1733C235.166 32.2213 236.339 35.1653 236.339 39.0053V54.7493H239.667V61.2773H235.123ZM221.555 56.0933C223.39 56.0933 224.947 55.688 226.227 54.8773C227.507 54.0667 228.147 52.872 228.147 51.2933V46.8773H222.899C218.633 46.8773 216.499 48.2427 216.499 50.9733V52.0613C216.499 53.4267 216.926 54.4507 217.779 55.1333C218.675 55.7733 219.934 56.0933 221.555 56.0933ZM245.977 61.2773V27.8693H254.169V33.4373H254.489C255.172 31.6453 256.239 30.152 257.689 28.9573C259.183 27.72 261.231 27.1013 263.833 27.1013C267.289 27.1013 269.935 28.232 271.769 30.4933C273.604 32.7547 274.521 35.976 274.521 40.1573V61.2773H266.329V40.9893C266.329 38.6 265.903 36.808 265.049 35.6133C264.196 34.4187 262.788 33.8213 260.825 33.8213C259.972 33.8213 259.14 33.9493 258.329 34.2053C257.561 34.4187 256.857 34.76 256.217 35.2293C255.62 35.656 255.129 36.2107 254.745 36.8933C254.361 37.5333 254.169 38.3013 254.169 39.1973V61.2773H245.977ZM304.018 55.7093H303.698C303.101 57.6293 301.97 59.1653 300.306 60.3173C298.642 61.4693 296.701 62.0453 294.482 62.0453C290.258 62.0453 287.016 60.5307 284.754 57.5013C282.536 54.472 281.426 50.1413 281.426 44.5093C281.426 38.92 282.536 34.632 284.754 31.6453C287.016 28.616 290.258 27.1013 294.482 27.1013C296.701 27.1013 298.642 27.6773 300.306 28.8293C301.97 29.9387 303.101 31.4533 303.698 33.3733H304.018V13.9173H312.21V61.2773H304.018V55.7093ZM297.106 55.2613C299.069 55.2613 300.712 54.792 302.034 53.8533C303.357 52.9147 304.018 51.5707 304.018 49.8213V39.1973C304.018 37.576 303.357 36.2747 302.034 35.2933C300.712 34.312 299.069 33.8213 297.106 33.8213C294.973 33.8213 293.245 34.5467 291.922 35.9973C290.642 37.4053 290.002 39.304 290.002 41.6933V47.4533C290.002 49.8427 290.642 51.7413 291.922 53.1493C293.245 54.5573 294.973 55.2613 297.106 55.2613ZM344.334 61.2773C341.518 61.2773 339.449 60.5733 338.126 59.1653C336.804 57.7573 336.142 55.7733 336.142 53.2133V13.9173H344.334V54.7493H348.75V61.2773H344.334ZM368.139 62.0453C365.664 62.0453 363.445 61.64 361.483 60.8293C359.563 59.976 357.92 58.8027 356.555 57.3093C355.232 55.7733 354.208 53.9387 353.483 51.8053C352.757 49.6293 352.395 47.1973 352.395 44.5093C352.395 41.864 352.736 39.4747 353.419 37.3413C354.144 35.208 355.168 33.3947 356.491 31.9013C357.813 30.3653 359.435 29.192 361.355 28.3813C363.275 27.528 365.451 27.1013 367.883 27.1013C370.485 27.1013 372.747 27.5493 374.667 28.4453C376.587 29.3413 378.165 30.5573 379.403 32.0933C380.64 33.6293 381.557 35.4213 382.155 37.4693C382.795 39.4747 383.115 41.6293 383.115 43.9333V46.6213H360.907V47.4533C360.907 49.8853 361.589 51.848 362.955 53.3413C364.32 54.792 366.347 55.5173 369.035 55.5173C371.083 55.5173 372.747 55.0907 374.027 54.2373C375.349 53.384 376.523 52.296 377.547 50.9733L381.963 55.9013C380.597 57.8213 378.72 59.336 376.331 60.4453C373.984 61.512 371.253 62.0453 368.139 62.0453ZM368.011 33.2453C365.835 33.2453 364.107 33.9707 362.827 35.4213C361.547 36.872 360.907 38.7493 360.907 41.0533V41.5653H374.603V40.9893C374.603 38.6853 374.027 36.8293 372.875 35.4213C371.765 33.9707 370.144 33.2453 368.011 33.2453ZM414.578 61.2773C412.786 61.2773 411.357 60.7653 410.29 59.7413C409.266 58.6747 408.626 57.2667 408.37 55.5173H407.986C407.432 57.6933 406.301 59.336 404.594 60.4453C402.888 61.512 400.776 62.0453 398.258 62.0453C394.845 62.0453 392.221 61.1493 390.386 59.3573C388.552 57.5653 387.634 55.176 387.634 52.1893C387.634 48.7333 388.872 46.1733 391.346 44.5093C393.821 42.8027 397.341 41.9493 401.906 41.9493H407.602V39.5173C407.602 37.64 407.112 36.1893 406.13 35.1653C405.149 34.1413 403.57 33.6293 401.394 33.6293C399.474 33.6293 397.917 34.056 396.722 34.9093C395.57 35.72 394.589 36.7013 393.778 37.8533L388.914 33.5013C390.152 31.5813 391.794 30.0453 393.842 28.8933C395.89 27.6987 398.6 27.1013 401.97 27.1013C406.493 27.1013 409.928 28.1253 412.274 30.1733C414.621 32.2213 415.794 35.1653 415.794 39.0053V54.7493H419.122V61.2773H414.578ZM401.01 56.0933C402.845 56.0933 404.402 55.688 405.682 54.8773C406.962 54.0667 407.602 52.872 407.602 51.2933V46.8773H402.354C398.088 46.8773 395.954 48.2427 395.954 50.9733V52.0613C395.954 53.4267 396.381 54.4507 397.234 55.1333C398.13 55.7733 399.389 56.0933 401.01 56.0933ZM446.168 55.7093H445.848C445.251 57.6293 444.12 59.1653 442.456 60.3173C440.792 61.4693 438.851 62.0453 436.632 62.0453C432.408 62.0453 429.166 60.5307 426.904 57.5013C424.686 54.472 423.576 50.1413 423.576 44.5093C423.576 38.92 424.686 34.632 426.904 31.6453C429.166 28.616 432.408 27.1013 436.632 27.1013C438.851 27.1013 440.792 27.6773 442.456 28.8293C444.12 29.9387 445.251 31.4533 445.848 33.3733H446.168V13.9173H454.36V61.2773H446.168V55.7093ZM439.256 55.2613C441.219 55.2613 442.862 54.792 444.184 53.8533C445.507 52.9147 446.168 51.5707 446.168 49.8213V39.1973C446.168 37.576 445.507 36.2747 444.184 35.2933C442.862 34.312 441.219 33.8213 439.256 33.8213C437.123 33.8213 435.395 34.5467 434.072 35.9973C432.792 37.4053 432.152 39.304 432.152 41.6933V47.4533C432.152 49.8427 432.792 51.7413 434.072 53.1493C435.395 54.5573 437.123 55.2613 439.256 55.2613ZM491.476 62.0453C489.002 62.0453 486.804 61.64 484.884 60.8293C482.964 60.0187 481.343 58.8453 480.02 57.3093C478.74 55.7733 477.759 53.9387 477.076 51.8053C476.394 49.6293 476.052 47.1973 476.052 44.5093C476.052 41.8213 476.394 39.4107 477.076 37.2773C477.759 35.144 478.74 33.3307 480.02 31.8373C481.343 30.3013 482.964 29.128 484.884 28.3173C486.804 27.5067 489.002 27.1013 491.476 27.1013C494.847 27.1013 497.62 27.848 499.796 29.3413C502.015 30.8347 503.615 32.904 504.596 35.5493L497.876 38.5573C497.492 37.1493 496.767 35.9973 495.7 35.1013C494.676 34.1627 493.268 33.6933 491.476 33.6933C489.172 33.6933 487.444 34.4187 486.292 35.8693C485.183 37.32 484.628 39.2187 484.628 41.5653V47.6453C484.628 49.992 485.183 51.8907 486.292 53.3413C487.444 54.7493 489.172 55.4533 491.476 55.4533C493.439 55.4533 494.954 54.9627 496.02 53.9813C497.087 52.9573 497.919 51.6987 498.516 50.2053L504.788 53.2133C503.679 56.1573 501.994 58.376 499.732 59.8693C497.471 61.32 494.719 62.0453 491.476 62.0453ZM523.72 62.0453C521.331 62.0453 519.176 61.64 517.256 60.8293C515.379 60.0187 513.758 58.8453 512.392 57.3093C511.07 55.7733 510.046 53.9387 509.32 51.8053C508.595 49.6293 508.232 47.1973 508.232 44.5093C508.232 41.8213 508.595 39.4107 509.32 37.2773C510.046 35.144 511.07 33.3307 512.392 31.8373C513.758 30.3013 515.379 29.128 517.256 28.3173C519.176 27.5067 521.331 27.1013 523.72 27.1013C526.11 27.1013 528.264 27.5067 530.184 28.3173C532.104 29.128 533.726 30.3013 535.048 31.8373C536.414 33.3307 537.459 35.144 538.184 37.2773C538.91 39.4107 539.272 41.8213 539.272 44.5093C539.272 47.1973 538.91 49.6293 538.184 51.8053C537.459 53.9387 536.414 55.7733 535.048 57.3093C533.726 58.8453 532.104 60.0187 530.184 60.8293C528.264 61.64 526.11 62.0453 523.72 62.0453ZM523.72 55.4533C525.896 55.4533 527.603 54.792 528.84 53.4693C530.078 52.1467 530.696 50.2053 530.696 47.6453V41.4373C530.696 38.92 530.078 37 528.84 35.6773C527.603 34.3547 525.896 33.6933 523.72 33.6933C521.587 33.6933 519.902 34.3547 518.664 35.6773C517.427 37 516.808 38.92 516.808 41.4373V47.6453C516.808 50.2053 517.427 52.1467 518.664 53.4693C519.902 54.792 521.587 55.4533 523.72 55.4533ZM546.215 61.2773V27.8693H554.407V33.4373H554.727C555.409 31.6453 556.476 30.152 557.927 28.9573C559.42 27.72 561.468 27.1013 564.071 27.1013C567.527 27.1013 570.172 28.232 572.007 30.4933C573.841 32.7547 574.759 35.976 574.759 40.1573V61.2773H566.567V40.9893C566.567 38.6 566.14 36.808 565.287 35.6133C564.433 34.4187 563.025 33.8213 561.063 33.8213C560.209 33.8213 559.377 33.9493 558.567 34.2053C557.799 34.4187 557.095 34.76 556.455 35.2293C555.857 35.656 555.367 36.2107 554.983 36.8933C554.599 37.5333 554.407 38.3013 554.407 39.1973V61.2773H546.215ZM593.952 61.2773C591.136 61.2773 588.981 60.552 587.488 59.1013C586.037 57.608 585.312 55.496 585.312 52.7653V34.3973H580.384V27.8693H582.944C584.181 27.8693 585.013 27.592 585.44 27.0373C585.909 26.44 586.144 25.5653 586.144 24.4133V18.7173H593.504V27.8693H600.352V34.3973H593.504V54.7493H599.84V61.2773H593.952ZM620.391 62.0453C617.917 62.0453 615.698 61.64 613.735 60.8293C611.815 59.976 610.173 58.8027 608.807 57.3093C607.485 55.7733 606.461 53.9387 605.735 51.8053C605.01 49.6293 604.647 47.1973 604.647 44.5093C604.647 41.864 604.989 39.4747 605.671 37.3413C606.397 35.208 607.421 33.3947 608.743 31.9013C610.066 30.3653 611.687 29.192 613.607 28.3813C615.527 27.528 617.703 27.1013 620.135 27.1013C622.738 27.1013 624.999 27.5493 626.919 28.4453C628.839 29.3413 630.418 30.5573 631.655 32.0933C632.893 33.6293 633.81 35.4213 634.407 37.4693C635.047 39.4747 635.367 41.6293 635.367 43.9333V46.6213H613.159V47.4533C613.159 49.8853 613.842 51.848 615.207 53.3413C616.573 54.792 618.599 55.5173 621.287 55.5173C623.335 55.5173 624.999 55.0907 626.279 54.2373C627.602 53.384 628.775 52.296 629.799 50.9733L634.215 55.9013C632.85 57.8213 630.973 59.336 628.583 60.4453C626.237 61.512 623.506 62.0453 620.391 62.0453ZM620.263 33.2453C618.087 33.2453 616.359 33.9707 615.079 35.4213C613.799 36.872 613.159 38.7493 613.159 41.0533V41.5653H626.855V40.9893C626.855 38.6853 626.279 36.8293 625.127 35.4213C624.018 33.9707 622.397 33.2453 620.263 33.2453ZM642.255 61.2773V27.8693H650.447V33.4373H650.767C651.449 31.6453 652.516 30.152 653.967 28.9573C655.46 27.72 657.508 27.1013 660.111 27.1013C663.567 27.1013 666.212 28.232 668.047 30.4933C669.881 32.7547 670.799 35.976 670.799 40.1573V61.2773H662.607V40.9893C662.607 38.6 662.18 36.808 661.327 35.6133C660.473 34.4187 659.065 33.8213 657.103 33.8213C656.249 33.8213 655.417 33.9493 654.607 34.2053C653.839 34.4187 653.135 34.76 652.495 35.2293C651.897 35.656 651.407 36.2107 651.023 36.8933C650.639 37.5333 650.447 38.3013 650.447 39.1973V61.2773H642.255ZM689.992 61.2773C687.176 61.2773 685.021 60.552 683.528 59.1013C682.077 57.608 681.352 55.496 681.352 52.7653V34.3973H676.424V27.8693H678.984C680.221 27.8693 681.053 27.592 681.48 27.0373C681.949 26.44 682.184 25.5653 682.184 24.4133V18.7173H689.544V27.8693H696.392V34.3973H689.544V54.7493H695.88V61.2773H689.992ZM728.414 61.2773C725.598 61.2773 723.444 60.552 721.95 59.1013C720.5 57.608 719.774 55.496 719.774 52.7653V34.3973H714.846V27.8693H717.406C718.644 27.8693 719.476 27.592 719.902 27.0373C720.372 26.44 720.606 25.5653 720.606 24.4133V18.7173H727.966V27.8693H734.814V34.3973H727.966V54.7493H734.302V61.2773H728.414ZM754.854 62.0453C752.379 62.0453 750.16 61.64 748.198 60.8293C746.278 59.976 744.635 58.8027 743.27 57.3093C741.947 55.7733 740.923 53.9387 740.198 51.8053C739.472 49.6293 739.11 47.1973 739.11 44.5093C739.11 41.864 739.451 39.4747 740.134 37.3413C740.859 35.208 741.883 33.3947 743.206 31.9013C744.528 30.3653 746.15 29.192 748.07 28.3813C749.99 27.528 752.166 27.1013 754.598 27.1013C757.2 27.1013 759.462 27.5493 761.382 28.4453C763.302 29.3413 764.88 30.5573 766.118 32.0933C767.355 33.6293 768.272 35.4213 768.87 37.4693C769.51 39.4747 769.83 41.6293 769.83 43.9333V46.6213H747.622V47.4533C747.622 49.8853 748.304 51.848 749.67 53.3413C751.035 54.792 753.062 55.5173 755.75 55.5173C757.798 55.5173 759.462 55.0907 760.742 54.2373C762.064 53.384 763.238 52.296 764.262 50.9733L768.678 55.9013C767.312 57.8213 765.435 59.336 763.046 60.4453C760.699 61.512 757.968 62.0453 754.854 62.0453ZM754.726 33.2453C752.55 33.2453 750.822 33.9707 749.542 35.4213C748.262 36.872 747.622 38.7493 747.622 41.0533V41.5653H761.318V40.9893C761.318 38.6853 760.742 36.8293 759.59 35.4213C758.48 33.9707 756.859 33.2453 754.726 33.2453ZM801.293 61.2773C799.501 61.2773 798.072 60.7653 797.005 59.7413C795.981 58.6747 795.341 57.2667 795.085 55.5173H794.701C794.147 57.6933 793.016 59.336 791.309 60.4453C789.603 61.512 787.491 62.0453 784.973 62.0453C781.56 62.0453 778.936 61.1493 777.101 59.3573C775.267 57.5653 774.349 55.176 774.349 52.1893C774.349 48.7333 775.587 46.1733 778.061 44.5093C780.536 42.8027 784.056 41.9493 788.621 41.9493H794.317V39.5173C794.317 37.64 793.827 36.1893 792.845 35.1653C791.864 34.1413 790.285 33.6293 788.109 33.6293C786.189 33.6293 784.632 34.056 783.437 34.9093C782.285 35.72 781.304 36.7013 780.493 37.8533L775.629 33.5013C776.867 31.5813 778.509 30.0453 780.557 28.8933C782.605 27.6987 785.315 27.1013 788.685 27.1013C793.208 27.1013 796.643 28.1253 798.989 30.1733C801.336 32.2213 802.509 35.1653 802.509 39.0053V54.7493H805.837V61.2773H801.293ZM787.725 56.0933C789.56 56.0933 791.117 55.688 792.397 54.8773C793.677 54.0667 794.317 52.872 794.317 51.2933V46.8773H789.069C784.803 46.8773 782.669 48.2427 782.669 50.9733V52.0613C782.669 53.4267 783.096 54.4507 783.949 55.1333C784.845 55.7733 786.104 56.0933 787.725 56.0933ZM812.147 61.2773V27.8693H820.339V33.4373H820.659C821.299 31.688 822.323 30.1947 823.731 28.9573C825.139 27.72 827.102 27.1013 829.619 27.1013C831.923 27.1013 833.907 27.656 835.571 28.7653C837.235 29.8747 838.473 31.56 839.283 33.8213H839.411C840.009 31.944 841.182 30.3653 842.931 29.0853C844.723 27.7627 846.963 27.1013 849.651 27.1013C852.937 27.1013 855.454 28.232 857.203 30.4933C858.995 32.7547 859.891 35.976 859.891 40.1573V61.2773H851.699V40.9893C851.699 36.2107 849.907 33.8213 846.323 33.8213C845.513 33.8213 844.723 33.9493 843.955 34.2053C843.23 34.4187 842.569 34.76 841.971 35.2293C841.417 35.656 840.969 36.2107 840.627 36.8933C840.286 37.5333 840.115 38.3013 840.115 39.1973V61.2773H831.923V40.9893C831.923 36.2107 830.131 33.8213 826.547 33.8213C825.779 33.8213 825.011 33.9493 824.243 34.2053C823.518 34.4187 822.857 34.76 822.259 35.2293C821.705 35.656 821.235 36.2107 820.851 36.8933C820.51 37.5333 820.339 38.3013 820.339 39.1973V61.2773H812.147ZM879.584 62.0453C876.384 62.0453 873.696 61.512 871.52 60.4453C869.344 59.336 867.424 57.8213 865.76 55.9013L870.752 51.0373C871.989 52.4453 873.333 53.5547 874.784 54.3653C876.277 55.176 877.984 55.5813 879.904 55.5813C881.866 55.5813 883.274 55.24 884.128 54.5573C885.024 53.8747 885.472 52.936 885.472 51.7413C885.472 50.76 885.152 49.992 884.512 49.4373C883.914 48.84 882.869 48.4347 881.376 48.2213L878.048 47.7733C874.421 47.304 871.648 46.28 869.728 44.7013C867.85 43.08 866.912 40.7333 866.912 37.6613C866.912 36.04 867.21 34.5893 867.808 33.3093C868.405 31.9867 869.258 30.8773 870.368 29.9813C871.477 29.0427 872.8 28.3387 874.336 27.8693C875.914 27.3573 877.664 27.1013 879.584 27.1013C881.205 27.1013 882.634 27.2293 883.872 27.4853C885.152 27.6987 886.304 28.04 887.328 28.5093C888.352 28.936 889.29 29.4907 890.144 30.1733C890.997 30.8133 891.829 31.5387 892.64 32.3493L887.84 37.1493C886.858 36.1253 885.685 35.272 884.32 34.5893C882.954 33.9067 881.461 33.5653 879.84 33.5653C878.048 33.5653 876.746 33.8853 875.936 34.5253C875.168 35.1653 874.784 35.9973 874.784 37.0213C874.784 38.1307 875.104 38.984 875.744 39.5813C876.426 40.136 877.557 40.5413 879.136 40.7973L882.528 41.2453C889.738 42.2693 893.344 45.5547 893.344 51.1013C893.344 52.7227 893.002 54.216 892.32 55.5813C891.68 56.904 890.762 58.056 889.568 59.0373C888.373 59.976 886.922 60.7227 885.216 61.2773C883.552 61.7893 881.674 62.0453 879.584 62.0453ZM106.083 135.277C103.267 135.277 101.112 134.552 99.6189 133.101C98.1683 131.608 97.4429 129.496 97.4429 126.765V108.397H92.5149V101.869H95.0749C96.3123 101.869 97.1443 101.592 97.5709 101.037C98.0403 100.44 98.2749 99.5653 98.2749 98.4133V92.7173H105.635V101.869H112.483V108.397H105.635V128.749H111.971V135.277H106.083ZM132.266 136.045C129.877 136.045 127.722 135.64 125.802 134.829C123.925 134.019 122.304 132.845 120.938 131.309C119.616 129.773 118.592 127.939 117.866 125.805C117.141 123.629 116.778 121.197 116.778 118.509C116.778 115.821 117.141 113.411 117.866 111.277C118.592 109.144 119.616 107.331 120.938 105.837C122.304 104.301 123.925 103.128 125.802 102.317C127.722 101.507 129.877 101.101 132.266 101.101C134.656 101.101 136.81 101.507 138.73 102.317C140.65 103.128 142.272 104.301 143.594 105.837C144.96 107.331 146.005 109.144 146.73 111.277C147.456 113.411 147.818 115.821 147.818 118.509C147.818 121.197 147.456 123.629 146.73 125.805C146.005 127.939 144.96 129.773 143.594 131.309C142.272 132.845 140.65 134.019 138.73 134.829C136.81 135.64 134.656 136.045 132.266 136.045ZM132.266 129.453C134.442 129.453 136.149 128.792 137.386 127.469C138.624 126.147 139.242 124.205 139.242 121.645V115.437C139.242 112.92 138.624 111 137.386 109.677C136.149 108.355 134.442 107.693 132.266 107.693C130.133 107.693 128.448 108.355 127.21 109.677C125.973 111 125.354 112.92 125.354 115.437V121.645C125.354 124.205 125.973 126.147 127.21 127.469C128.448 128.792 130.133 129.453 132.266 129.453ZM190.302 129.709H189.982C189.385 131.629 188.254 133.165 186.59 134.317C184.926 135.469 182.985 136.045 180.766 136.045C176.542 136.045 173.299 134.531 171.038 131.501C168.819 128.472 167.71 124.141 167.71 118.509C167.71 112.92 168.819 108.632 171.038 105.645C173.299 102.616 176.542 101.101 180.766 101.101C182.985 101.101 184.926 101.677 186.59 102.829C188.254 103.939 189.385 105.453 189.982 107.373H190.302V87.9173H198.494V135.277H190.302V129.709ZM183.39 129.261C185.353 129.261 186.995 128.792 188.318 127.853C189.641 126.915 190.302 125.571 190.302 123.821V113.197C190.302 111.576 189.641 110.275 188.318 109.293C186.995 108.312 185.353 107.821 183.39 107.821C181.257 107.821 179.529 108.547 178.206 109.997C176.926 111.405 176.286 113.304 176.286 115.693V121.453C176.286 123.843 176.926 125.741 178.206 127.149C179.529 128.557 181.257 129.261 183.39 129.261ZM207.621 135.277V101.869H215.813V108.781H216.133C216.346 107.885 216.666 107.032 217.093 106.221C217.562 105.368 218.16 104.621 218.885 103.981C219.61 103.341 220.464 102.829 221.445 102.445C222.469 102.061 223.642 101.869 224.965 101.869H226.757V109.613H224.197C221.424 109.613 219.333 110.019 217.925 110.829C216.517 111.64 215.813 112.963 215.813 114.797V135.277H207.621ZM236.522 97.0053C234.815 97.0053 233.578 96.6213 232.81 95.8533C232.085 95.0853 231.722 94.104 231.722 92.9093V91.6293C231.722 90.4347 232.085 89.4533 232.81 88.6853C233.578 87.9173 234.815 87.5333 236.522 87.5333C238.186 87.5333 239.402 87.9173 240.17 88.6853C240.938 89.4533 241.322 90.4347 241.322 91.6293V92.9093C241.322 94.104 240.938 95.0853 240.17 95.8533C239.402 96.6213 238.186 97.0053 236.522 97.0053ZM232.426 101.869H240.618V135.277H232.426V101.869ZM256.961 135.277L245.825 101.869H253.889L258.561 116.269L261.825 128.173H262.273L265.537 116.269L270.081 101.869H277.889L266.689 135.277H256.961ZM296.04 136.045C293.565 136.045 291.347 135.64 289.384 134.829C287.464 133.976 285.821 132.803 284.456 131.309C283.133 129.773 282.109 127.939 281.384 125.805C280.659 123.629 280.296 121.197 280.296 118.509C280.296 115.864 280.637 113.475 281.32 111.341C282.045 109.208 283.069 107.395 284.392 105.901C285.715 104.365 287.336 103.192 289.256 102.381C291.176 101.528 293.352 101.101 295.784 101.101C298.387 101.101 300.648 101.549 302.568 102.445C304.488 103.341 306.067 104.557 307.304 106.093C308.541 107.629 309.459 109.421 310.056 111.469C310.696 113.475 311.016 115.629 311.016 117.933V120.621H288.808V121.453C288.808 123.885 289.491 125.848 290.856 127.341C292.221 128.792 294.248 129.517 296.936 129.517C298.984 129.517 300.648 129.091 301.928 128.237C303.251 127.384 304.424 126.296 305.448 124.973L309.864 129.901C308.499 131.821 306.621 133.336 304.232 134.445C301.885 135.512 299.155 136.045 296.04 136.045ZM295.912 107.245C293.736 107.245 292.008 107.971 290.728 109.421C289.448 110.872 288.808 112.749 288.808 115.053V115.565H302.504V114.989C302.504 112.685 301.928 110.829 300.776 109.421C299.667 107.971 298.045 107.245 295.912 107.245ZM332.708 87.9173H340.9V107.373H341.156C341.754 105.453 342.884 103.939 344.548 102.829C346.212 101.677 348.154 101.101 350.372 101.101C354.639 101.101 357.882 102.616 360.1 105.645C362.362 108.632 363.492 112.92 363.492 118.509C363.492 124.141 362.362 128.472 360.1 131.501C357.882 134.531 354.639 136.045 350.372 136.045C348.154 136.045 346.212 135.469 344.548 134.317C342.927 133.165 341.796 131.629 341.156 129.709H340.9V135.277H332.708V87.9173ZM347.748 129.261C349.882 129.261 351.61 128.557 352.932 127.149C354.255 125.741 354.916 123.843 354.916 121.453V115.693C354.916 113.304 354.255 111.405 352.932 109.997C351.61 108.547 349.882 107.821 347.748 107.821C345.786 107.821 344.143 108.312 342.82 109.293C341.54 110.275 340.9 111.576 340.9 113.197V123.821C340.9 125.571 341.54 126.915 342.82 127.853C344.143 128.792 345.786 129.261 347.748 129.261ZM390.731 129.709H390.411C390.113 130.563 389.707 131.373 389.195 132.141C388.726 132.867 388.107 133.528 387.339 134.125C386.614 134.723 385.718 135.192 384.651 135.533C383.627 135.875 382.433 136.045 381.067 136.045C377.611 136.045 374.966 134.915 373.131 132.653C371.297 130.392 370.379 127.171 370.379 122.989V101.869H378.571V122.157C378.571 124.461 379.019 126.232 379.915 127.469C380.811 128.664 382.241 129.261 384.203 129.261C385.014 129.261 385.803 129.155 386.571 128.941C387.382 128.728 388.086 128.408 388.683 127.981C389.281 127.512 389.771 126.957 390.155 126.317C390.539 125.635 390.731 124.845 390.731 123.949V101.869H398.923V135.277H390.731V129.709ZM419.012 136.045C415.812 136.045 413.124 135.512 410.948 134.445C408.772 133.336 406.852 131.821 405.188 129.901L410.18 125.037C411.418 126.445 412.762 127.555 414.212 128.365C415.706 129.176 417.412 129.581 419.332 129.581C421.295 129.581 422.703 129.24 423.556 128.557C424.452 127.875 424.9 126.936 424.9 125.741C424.9 124.76 424.58 123.992 423.94 123.437C423.343 122.84 422.298 122.435 420.804 122.221L417.476 121.773C413.85 121.304 411.076 120.28 409.156 118.701C407.279 117.08 406.34 114.733 406.34 111.661C406.34 110.04 406.639 108.589 407.236 107.309C407.834 105.987 408.687 104.877 409.796 103.981C410.906 103.043 412.228 102.339 413.764 101.869C415.343 101.357 417.092 101.101 419.012 101.101C420.634 101.101 422.063 101.229 423.3 101.485C424.58 101.699 425.732 102.04 426.756 102.509C427.78 102.936 428.719 103.491 429.572 104.173C430.426 104.813 431.258 105.539 432.068 106.349L427.268 111.149C426.287 110.125 425.114 109.272 423.748 108.589C422.383 107.907 420.89 107.565 419.268 107.565C417.476 107.565 416.175 107.885 415.364 108.525C414.596 109.165 414.212 109.997 414.212 111.021C414.212 112.131 414.532 112.984 415.172 113.581C415.855 114.136 416.986 114.541 418.564 114.797L421.956 115.245C429.167 116.269 432.772 119.555 432.772 125.101C432.772 126.723 432.431 128.216 431.748 129.581C431.108 130.904 430.191 132.056 428.996 133.037C427.802 133.976 426.351 134.723 424.644 135.277C422.98 135.789 421.103 136.045 419.012 136.045ZM443.782 97.0053C442.075 97.0053 440.838 96.6213 440.07 95.8533C439.345 95.0853 438.982 94.104 438.982 92.9093V91.6293C438.982 90.4347 439.345 89.4533 440.07 88.6853C440.838 87.9173 442.075 87.5333 443.782 87.5333C445.446 87.5333 446.662 87.9173 447.43 88.6853C448.198 89.4533 448.582 90.4347 448.582 91.6293V92.9093C448.582 94.104 448.198 95.0853 447.43 95.8533C446.662 96.6213 445.446 97.0053 443.782 97.0053ZM439.686 101.869H447.878V135.277H439.686V101.869ZM457.053 135.277V101.869H465.245V107.437H465.565C466.248 105.645 467.315 104.152 468.765 102.957C470.259 101.72 472.307 101.101 474.909 101.101C478.365 101.101 481.011 102.232 482.845 104.493C484.68 106.755 485.597 109.976 485.597 114.157V135.277H477.405V114.989C477.405 112.6 476.979 110.808 476.125 109.613C475.272 108.419 473.864 107.821 471.901 107.821C471.048 107.821 470.216 107.949 469.405 108.205C468.637 108.419 467.933 108.76 467.293 109.229C466.696 109.656 466.205 110.211 465.821 110.893C465.437 111.533 465.245 112.301 465.245 113.197V135.277H457.053ZM507.862 136.045C505.388 136.045 503.169 135.64 501.206 134.829C499.286 133.976 497.644 132.803 496.278 131.309C494.956 129.773 493.932 127.939 493.206 125.805C492.481 123.629 492.118 121.197 492.118 118.509C492.118 115.864 492.46 113.475 493.142 111.341C493.868 109.208 494.892 107.395 496.214 105.901C497.537 104.365 499.158 103.192 501.078 102.381C502.998 101.528 505.174 101.101 507.606 101.101C510.209 101.101 512.47 101.549 514.39 102.445C516.31 103.341 517.889 104.557 519.126 106.093C520.364 107.629 521.281 109.421 521.878 111.469C522.518 113.475 522.838 115.629 522.838 117.933V120.621H500.63V121.453C500.63 123.885 501.313 125.848 502.678 127.341C504.044 128.792 506.07 129.517 508.758 129.517C510.806 129.517 512.47 129.091 513.75 128.237C515.073 127.384 516.246 126.296 517.27 124.973L521.686 129.901C520.321 131.821 518.444 133.336 516.054 134.445C513.708 135.512 510.977 136.045 507.862 136.045ZM507.734 107.245C505.558 107.245 503.83 107.971 502.55 109.421C501.27 110.872 500.63 112.749 500.63 115.053V115.565H514.326V114.989C514.326 112.685 513.75 110.829 512.598 109.421C511.489 107.971 509.868 107.245 507.734 107.245ZM540.67 136.045C537.47 136.045 534.782 135.512 532.606 134.445C530.43 133.336 528.51 131.821 526.846 129.901L531.838 125.037C533.075 126.445 534.419 127.555 535.87 128.365C537.363 129.176 539.07 129.581 540.99 129.581C542.953 129.581 544.361 129.24 545.214 128.557C546.11 127.875 546.558 126.936 546.558 125.741C546.558 124.76 546.238 123.992 545.598 123.437C545.001 122.84 543.955 122.435 542.462 122.221L539.134 121.773C535.507 121.304 532.734 120.28 530.814 118.701C528.937 117.08 527.998 114.733 527.998 111.661C527.998 110.04 528.297 108.589 528.894 107.309C529.491 105.987 530.345 104.877 531.454 103.981C532.563 103.043 533.886 102.339 535.422 101.869C537.001 101.357 538.75 101.101 540.67 101.101C542.291 101.101 543.721 101.229 544.958 101.485C546.238 101.699 547.39 102.04 548.414 102.509C549.438 102.936 550.377 103.491 551.23 104.173C552.083 104.813 552.915 105.539 553.726 106.349L548.926 111.149C547.945 110.125 546.771 109.272 545.406 108.589C544.041 107.907 542.547 107.565 540.926 107.565C539.134 107.565 537.833 107.885 537.022 108.525C536.254 109.165 535.87 109.997 535.87 111.021C535.87 112.131 536.19 112.984 536.83 113.581C537.513 114.136 538.643 114.541 540.222 114.797L543.614 115.245C550.825 116.269 554.43 119.555 554.43 125.101C554.43 126.723 554.089 128.216 553.406 129.581C552.766 130.904 551.849 132.056 550.654 133.037C549.459 133.976 548.009 134.723 546.302 135.277C544.638 135.789 542.761 136.045 540.67 136.045ZM571.85 136.045C568.65 136.045 565.962 135.512 563.786 134.445C561.61 133.336 559.69 131.821 558.026 129.901L563.018 125.037C564.255 126.445 565.599 127.555 567.05 128.365C568.543 129.176 570.25 129.581 572.17 129.581C574.133 129.581 575.541 129.24 576.394 128.557C577.29 127.875 577.738 126.936 577.738 125.741C577.738 124.76 577.418 123.992 576.778 123.437C576.181 122.84 575.135 122.435 573.642 122.221L570.314 121.773C566.687 121.304 563.914 120.28 561.994 118.701C560.117 117.08 559.178 114.733 559.178 111.661C559.178 110.04 559.477 108.589 560.074 107.309C560.671 105.987 561.525 104.877 562.634 103.981C563.743 103.043 565.066 102.339 566.602 101.869C568.181 101.357 569.93 101.101 571.85 101.101C573.471 101.101 574.901 101.229 576.138 101.485C577.418 101.699 578.57 102.04 579.594 102.509C580.618 102.936 581.557 103.491 582.41 104.173C583.263 104.813 584.095 105.539 584.906 106.349L580.106 111.149C579.125 110.125 577.951 109.272 576.586 108.589C575.221 107.907 573.727 107.565 572.106 107.565C570.314 107.565 569.013 107.885 568.202 108.525C567.434 109.165 567.05 109.997 567.05 111.021C567.05 112.131 567.37 112.984 568.01 113.581C568.693 114.136 569.823 114.541 571.402 114.797L574.794 115.245C582.005 116.269 585.61 119.555 585.61 125.101C585.61 126.723 585.269 128.216 584.586 129.581C583.946 130.904 583.029 132.056 581.834 133.037C580.639 133.976 579.189 134.723 577.482 135.277C575.818 135.789 573.941 136.045 571.85 136.045Z" fill="white"/>
</svg>
