<svg width="912" height="149" viewBox="0 0 912 149" fill="none" xmlns="http://www.w3.org/2000/svg">
<rect x="613" y="85.832" width="199.612" height="52.6858" fill="white"/>
<rect y="8.83203" width="189.224" height="56.3961" fill="white"/>
<path d="M3.67319 61.2773V54.4933H9.56119V23.3893H3.67319V16.6053H23.9612V23.3893H18.0092V54.4933H23.9612V61.2773H3.67319ZM46.5647 13.9173H54.7567V33.3733H55.0127C55.61 31.4533 56.7407 29.9387 58.4047 28.8293C60.0687 27.6773 62.01 27.1013 64.2287 27.1013C68.4954 27.1013 71.738 28.616 73.9567 31.6453C76.218 34.632 77.3487 38.92 77.3487 44.5093C77.3487 50.1413 76.218 54.472 73.9567 57.5013C71.738 60.5307 68.4954 62.0453 64.2287 62.0453C62.01 62.0453 60.0687 61.4693 58.4047 60.3173C56.7834 59.1653 55.6527 57.6293 55.0127 55.7093H54.7567V61.2773H46.5647V13.9173ZM61.6047 55.2613C63.738 55.2613 65.466 54.5573 66.7887 53.1493C68.1114 51.7413 68.7727 49.8427 68.7727 47.4533V41.6933C68.7727 39.304 68.1114 37.4053 66.7887 35.9973C65.466 34.5467 63.738 33.8213 61.6047 33.8213C59.642 33.8213 57.9994 34.312 56.6767 35.2933C55.3967 36.2747 54.7567 37.576 54.7567 39.1973V49.8213C54.7567 51.5707 55.3967 52.9147 56.6767 53.8533C57.9994 54.792 59.642 55.2613 61.6047 55.2613ZM104.588 55.7093H104.268C103.969 56.5627 103.564 57.3733 103.052 58.1413C102.582 58.8667 101.964 59.528 101.196 60.1253C100.47 60.7227 99.5744 61.192 98.5077 61.5333C97.4837 61.8747 96.289 62.0453 94.9237 62.0453C91.4677 62.0453 88.8224 60.9147 86.9877 58.6533C85.153 56.392 84.2357 53.1707 84.2357 48.9893V27.8693H92.4277V48.1573C92.4277 50.4613 92.8757 52.232 93.7717 53.4693C94.6677 54.664 96.097 55.2613 98.0597 55.2613C98.8704 55.2613 99.6597 55.1547 100.428 54.9413C101.238 54.728 101.942 54.408 102.54 53.9813C103.137 53.512 103.628 52.9573 104.012 52.3173C104.396 51.6347 104.588 50.8453 104.588 49.9493V27.8693H112.78V61.2773H104.588V55.7093ZM126.021 23.0053C124.314 23.0053 123.077 22.6213 122.309 21.8533C121.583 21.0853 121.221 20.104 121.221 18.9093V17.6293C121.221 16.4347 121.583 15.4533 122.309 14.6853C123.077 13.9173 124.314 13.5333 126.021 13.5333C127.685 13.5333 128.901 13.9173 129.669 14.6853C130.437 15.4533 130.821 16.4347 130.821 17.6293V18.9093C130.821 20.104 130.437 21.0853 129.669 21.8533C128.901 22.6213 127.685 23.0053 126.021 23.0053ZM121.925 27.8693H130.117V61.2773H121.925V27.8693ZM147.484 61.2773C144.668 61.2773 142.599 60.5733 141.276 59.1653C139.954 57.7573 139.292 55.7733 139.292 53.2133V13.9173H147.484V54.7493H151.9V61.2773H147.484ZM178.521 55.7093H178.201C177.603 57.6293 176.473 59.1653 174.809 60.3173C173.145 61.4693 171.203 62.0453 168.985 62.0453C164.761 62.0453 161.518 60.5307 159.257 57.5013C157.038 54.472 155.929 50.1413 155.929 44.5093C155.929 38.92 157.038 34.632 159.257 31.6453C161.518 28.616 164.761 27.1013 168.985 27.1013C171.203 27.1013 173.145 27.6773 174.809 28.8293C176.473 29.9387 177.603 31.4533 178.201 33.3733H178.521V13.9173H186.713V61.2773H178.521V55.7093ZM171.609 55.2613C173.571 55.2613 175.214 54.792 176.537 53.8533C177.859 52.9147 178.521 51.5707 178.521 49.8213V39.1973C178.521 37.576 177.859 36.2747 176.537 35.2933C175.214 34.312 173.571 33.8213 171.609 33.8213C169.475 33.8213 167.747 34.5467 166.425 35.9973C165.145 37.4053 164.505 39.304 164.505 41.6933V47.4533C164.505 49.8427 165.145 51.7413 166.425 53.1493C167.747 54.5573 169.475 55.2613 171.609 55.2613ZM614.828 135.277V101.869H623.02V108.781H623.34C623.554 107.885 623.874 107.032 624.3 106.221C624.77 105.368 625.367 104.621 626.092 103.981C626.818 103.341 627.671 102.829 628.652 102.445C629.676 102.061 630.85 101.869 632.172 101.869H633.964V109.613H631.404C628.631 109.613 626.54 110.019 625.132 110.829C623.724 111.64 623.02 112.963 623.02 114.797V135.277H614.828ZM652.825 136.045C650.35 136.045 648.132 135.64 646.169 134.829C644.249 133.976 642.606 132.803 641.241 131.309C639.918 129.773 638.894 127.939 638.169 125.805C637.444 123.629 637.081 121.197 637.081 118.509C637.081 115.864 637.422 113.475 638.105 111.341C638.83 109.208 639.854 107.395 641.177 105.901C642.5 104.365 644.121 103.192 646.041 102.381C647.961 101.528 650.137 101.101 652.569 101.101C655.172 101.101 657.433 101.549 659.353 102.445C661.273 103.341 662.852 104.557 664.089 106.093C665.326 107.629 666.244 109.421 666.841 111.469C667.481 113.475 667.801 115.629 667.801 117.933V120.621H645.593V121.453C645.593 123.885 646.276 125.848 647.641 127.341C649.006 128.792 651.033 129.517 653.721 129.517C655.769 129.517 657.433 129.091 658.713 128.237C660.036 127.384 661.209 126.296 662.233 124.973L666.649 129.901C665.284 131.821 663.406 133.336 661.017 134.445C658.67 135.512 655.94 136.045 652.825 136.045ZM652.697 107.245C650.521 107.245 648.793 107.971 647.513 109.421C646.233 110.872 645.593 112.749 645.593 115.053V115.565H659.289V114.989C659.289 112.685 658.713 110.829 657.561 109.421C656.452 107.971 654.83 107.245 652.697 107.245ZM685.632 136.045C682.432 136.045 679.744 135.512 677.568 134.445C675.392 133.336 673.472 131.821 671.808 129.901L676.8 125.037C678.038 126.445 679.382 127.555 680.832 128.365C682.326 129.176 684.032 129.581 685.952 129.581C687.915 129.581 689.323 129.24 690.176 128.557C691.072 127.875 691.52 126.936 691.52 125.741C691.52 124.76 691.2 123.992 690.56 123.437C689.963 122.84 688.918 122.435 687.424 122.221L684.096 121.773C680.47 121.304 677.696 120.28 675.776 118.701C673.899 117.08 672.96 114.733 672.96 111.661C672.96 110.04 673.259 108.589 673.856 107.309C674.454 105.987 675.307 104.877 676.416 103.981C677.526 103.043 678.848 102.339 680.384 101.869C681.963 101.357 683.712 101.101 685.632 101.101C687.254 101.101 688.683 101.229 689.92 101.485C691.2 101.699 692.352 102.04 693.376 102.509C694.4 102.936 695.339 103.491 696.192 104.173C697.046 104.813 697.878 105.539 698.688 106.349L693.888 111.149C692.907 110.125 691.734 109.272 690.368 108.589C689.003 107.907 687.51 107.565 685.888 107.565C684.096 107.565 682.795 107.885 681.984 108.525C681.216 109.165 680.832 109.997 680.832 111.021C680.832 112.131 681.152 112.984 681.792 113.581C682.475 114.136 683.606 114.541 685.184 114.797L688.576 115.245C695.787 116.269 699.392 119.555 699.392 125.101C699.392 126.723 699.051 128.216 698.368 129.581C697.728 130.904 696.811 132.056 695.616 133.037C694.422 133.976 692.971 134.723 691.264 135.277C689.6 135.789 687.723 136.045 685.632 136.045ZM726.274 129.709H725.954C725.655 130.563 725.25 131.373 724.738 132.141C724.269 132.867 723.65 133.528 722.882 134.125C722.157 134.723 721.261 135.192 720.194 135.533C719.17 135.875 717.975 136.045 716.61 136.045C713.154 136.045 710.509 134.915 708.674 132.653C706.839 130.392 705.922 127.171 705.922 122.989V101.869H714.114V122.157C714.114 124.461 714.562 126.232 715.458 127.469C716.354 128.664 717.783 129.261 719.746 129.261C720.557 129.261 721.346 129.155 722.114 128.941C722.925 128.728 723.629 128.408 724.226 127.981C724.823 127.512 725.314 126.957 725.698 126.317C726.082 125.635 726.274 124.845 726.274 123.949V101.869H734.466V135.277H726.274V129.709ZM751.803 135.277C748.987 135.277 746.918 134.573 745.595 133.165C744.272 131.757 743.611 129.773 743.611 127.213V87.9173H751.803V128.749H756.219V135.277H751.803ZM772.223 135.277C769.407 135.277 767.252 134.552 765.759 133.101C764.308 131.608 763.583 129.496 763.583 126.765V108.397H758.655V101.869H761.215C762.452 101.869 763.284 101.592 763.711 101.037C764.18 100.44 764.415 99.5653 764.415 98.4133V92.7173H771.775V101.869H778.623V108.397H771.775V128.749H778.111V135.277H772.223ZM796.352 136.045C793.152 136.045 790.464 135.512 788.288 134.445C786.112 133.336 784.192 131.821 782.528 129.901L787.52 125.037C788.758 126.445 790.102 127.555 791.552 128.365C793.046 129.176 794.752 129.581 796.672 129.581C798.635 129.581 800.043 129.24 800.896 128.557C801.792 127.875 802.24 126.936 802.24 125.741C802.24 124.76 801.92 123.992 801.28 123.437C800.683 122.84 799.638 122.435 798.144 122.221L794.816 121.773C791.19 121.304 788.416 120.28 786.496 118.701C784.619 117.08 783.68 114.733 783.68 111.661C783.68 110.04 783.979 108.589 784.576 107.309C785.174 105.987 786.027 104.877 787.136 103.981C788.246 103.043 789.568 102.339 791.104 101.869C792.683 101.357 794.432 101.101 796.352 101.101C797.974 101.101 799.403 101.229 800.64 101.485C801.92 101.699 803.072 102.04 804.096 102.509C805.12 102.936 806.059 103.491 806.912 104.173C807.766 104.813 808.598 105.539 809.408 106.349L804.608 111.149C803.627 110.125 802.454 109.272 801.088 108.589C799.723 107.907 798.23 107.565 796.608 107.565C794.816 107.565 793.515 107.885 792.704 108.525C791.936 109.165 791.552 109.997 791.552 111.021C791.552 112.131 791.872 112.984 792.512 113.581C793.195 114.136 794.326 114.541 795.904 114.797L799.296 115.245C806.507 116.269 810.112 119.555 810.112 125.101C810.112 126.723 809.771 128.216 809.088 129.581C808.448 130.904 807.531 132.056 806.336 133.037C805.142 133.976 803.691 134.723 801.984 135.277C800.32 135.789 798.443 136.045 796.352 136.045Z" fill="black"/>
<path d="M235.221 61.2773C233.429 61.2773 231.999 60.7653 230.933 59.7413C229.909 58.6747 229.269 57.2667 229.013 55.5173H228.629C228.074 57.6933 226.943 59.336 225.237 60.4453C223.53 61.512 221.418 62.0453 218.901 62.0453C215.487 62.0453 212.863 61.1493 211.029 59.3573C209.194 57.5653 208.277 55.176 208.277 52.1893C208.277 48.7333 209.514 46.1733 211.989 44.5093C214.463 42.8027 217.983 41.9493 222.549 41.9493H228.245V39.5173C228.245 37.64 227.754 36.1893 226.773 35.1653C225.791 34.1413 224.213 33.6293 222.037 33.6293C220.117 33.6293 218.559 34.056 217.365 34.9093C216.213 35.72 215.231 36.7013 214.421 37.8533L209.557 33.5013C210.794 31.5813 212.437 30.0453 214.485 28.8933C216.533 27.6987 219.242 27.1013 222.613 27.1013C227.135 27.1013 230.57 28.1253 232.917 30.1733C235.263 32.2213 236.437 35.1653 236.437 39.0053V54.7493H239.765V61.2773H235.221ZM221.653 56.0933C223.487 56.0933 225.045 55.688 226.325 54.8773C227.605 54.0667 228.245 52.872 228.245 51.2933V46.8773H222.997C218.73 46.8773 216.597 48.2427 216.597 50.9733V52.0613C216.597 53.4267 217.023 54.4507 217.877 55.1333C218.773 55.7733 220.031 56.0933 221.653 56.0933ZM246.075 61.2773V27.8693H254.267V33.4373H254.587C255.269 31.6453 256.336 30.152 257.787 28.9573C259.28 27.72 261.328 27.1013 263.931 27.1013C267.387 27.1013 270.032 28.232 271.867 30.4933C273.701 32.7547 274.619 35.976 274.619 40.1573V61.2773H266.427V40.9893C266.427 38.6 266 36.808 265.147 35.6133C264.293 34.4187 262.885 33.8213 260.923 33.8213C260.069 33.8213 259.237 33.9493 258.427 34.2053C257.659 34.4187 256.955 34.76 256.315 35.2293C255.717 35.656 255.227 36.2107 254.843 36.8933C254.459 37.5333 254.267 38.3013 254.267 39.1973V61.2773H246.075ZM304.116 55.7093H303.796C303.198 57.6293 302.068 59.1653 300.404 60.3173C298.74 61.4693 296.798 62.0453 294.58 62.0453C290.356 62.0453 287.113 60.5307 284.852 57.5013C282.633 54.472 281.524 50.1413 281.524 44.5093C281.524 38.92 282.633 34.632 284.852 31.6453C287.113 28.616 290.356 27.1013 294.58 27.1013C296.798 27.1013 298.74 27.6773 300.404 28.8293C302.068 29.9387 303.198 31.4533 303.796 33.3733H304.116V13.9173H312.308V61.2773H304.116V55.7093ZM297.204 55.2613C299.166 55.2613 300.809 54.792 302.132 53.8533C303.454 52.9147 304.116 51.5707 304.116 49.8213V39.1973C304.116 37.576 303.454 36.2747 302.132 35.2933C300.809 34.312 299.166 33.8213 297.204 33.8213C295.07 33.8213 293.342 34.5467 292.02 35.9973C290.74 37.4053 290.1 39.304 290.1 41.6933V47.4533C290.1 49.8427 290.74 51.7413 292.02 53.1493C293.342 54.5573 295.07 55.2613 297.204 55.2613ZM344.432 61.2773C341.616 61.2773 339.546 60.5733 338.224 59.1653C336.901 57.7573 336.24 55.7733 336.24 53.2133V13.9173H344.432V54.7493H348.848V61.2773H344.432ZM368.236 62.0453C365.762 62.0453 363.543 61.64 361.58 60.8293C359.66 59.976 358.018 58.8027 356.652 57.3093C355.33 55.7733 354.306 53.9387 353.58 51.8053C352.855 49.6293 352.492 47.1973 352.492 44.5093C352.492 41.864 352.834 39.4747 353.516 37.3413C354.242 35.208 355.266 33.3947 356.588 31.9013C357.911 30.3653 359.532 29.192 361.452 28.3813C363.372 27.528 365.548 27.1013 367.98 27.1013C370.583 27.1013 372.844 27.5493 374.764 28.4453C376.684 29.3413 378.263 30.5573 379.5 32.0933C380.738 33.6293 381.655 35.4213 382.252 37.4693C382.892 39.4747 383.212 41.6293 383.212 43.9333V46.6213H361.004V47.4533C361.004 49.8853 361.687 51.848 363.052 53.3413C364.418 54.792 366.444 55.5173 369.132 55.5173C371.18 55.5173 372.844 55.0907 374.124 54.2373C375.447 53.384 376.62 52.296 377.644 50.9733L382.06 55.9013C380.695 57.8213 378.818 59.336 376.428 60.4453C374.082 61.512 371.351 62.0453 368.236 62.0453ZM368.108 33.2453C365.932 33.2453 364.204 33.9707 362.924 35.4213C361.644 36.872 361.004 38.7493 361.004 41.0533V41.5653H374.7V40.9893C374.7 38.6853 374.124 36.8293 372.972 35.4213C371.863 33.9707 370.242 33.2453 368.108 33.2453ZM414.676 61.2773C412.884 61.2773 411.454 60.7653 410.388 59.7413C409.364 58.6747 408.724 57.2667 408.468 55.5173H408.084C407.529 57.6933 406.398 59.336 404.692 60.4453C402.985 61.512 400.873 62.0453 398.356 62.0453C394.942 62.0453 392.318 61.1493 390.484 59.3573C388.649 57.5653 387.732 55.176 387.732 52.1893C387.732 48.7333 388.969 46.1733 391.444 44.5093C393.918 42.8027 397.438 41.9493 402.004 41.9493H407.7V39.5173C407.7 37.64 407.209 36.1893 406.228 35.1653C405.246 34.1413 403.668 33.6293 401.492 33.6293C399.572 33.6293 398.014 34.056 396.82 34.9093C395.668 35.72 394.686 36.7013 393.876 37.8533L389.012 33.5013C390.249 31.5813 391.892 30.0453 393.94 28.8933C395.988 27.6987 398.697 27.1013 402.068 27.1013C406.59 27.1013 410.025 28.1253 412.372 30.1733C414.718 32.2213 415.892 35.1653 415.892 39.0053V54.7493H419.22V61.2773H414.676ZM401.108 56.0933C402.942 56.0933 404.5 55.688 405.78 54.8773C407.06 54.0667 407.7 52.872 407.7 51.2933V46.8773H402.452C398.185 46.8773 396.052 48.2427 396.052 50.9733V52.0613C396.052 53.4267 396.478 54.4507 397.332 55.1333C398.228 55.7733 399.486 56.0933 401.108 56.0933ZM446.266 55.7093H445.946C445.348 57.6293 444.218 59.1653 442.554 60.3173C440.89 61.4693 438.948 62.0453 436.73 62.0453C432.506 62.0453 429.263 60.5307 427.002 57.5013C424.783 54.472 423.674 50.1413 423.674 44.5093C423.674 38.92 424.783 34.632 427.002 31.6453C429.263 28.616 432.506 27.1013 436.73 27.1013C438.948 27.1013 440.89 27.6773 442.554 28.8293C444.218 29.9387 445.348 31.4533 445.946 33.3733H446.266V13.9173H454.458V61.2773H446.266V55.7093ZM439.354 55.2613C441.316 55.2613 442.959 54.792 444.282 53.8533C445.604 52.9147 446.266 51.5707 446.266 49.8213V39.1973C446.266 37.576 445.604 36.2747 444.282 35.2933C442.959 34.312 441.316 33.8213 439.354 33.8213C437.22 33.8213 435.492 34.5467 434.17 35.9973C432.89 37.4053 432.25 39.304 432.25 41.6933V47.4533C432.25 49.8427 432.89 51.7413 434.17 53.1493C435.492 54.5573 437.22 55.2613 439.354 55.2613ZM491.574 62.0453C489.099 62.0453 486.902 61.64 484.982 60.8293C483.062 60.0187 481.44 58.8453 480.118 57.3093C478.838 55.7733 477.856 53.9387 477.174 51.8053C476.491 49.6293 476.15 47.1973 476.15 44.5093C476.15 41.8213 476.491 39.4107 477.174 37.2773C477.856 35.144 478.838 33.3307 480.118 31.8373C481.44 30.3013 483.062 29.128 484.982 28.3173C486.902 27.5067 489.099 27.1013 491.574 27.1013C494.944 27.1013 497.718 27.848 499.894 29.3413C502.112 30.8347 503.712 32.904 504.694 35.5493L497.974 38.5573C497.59 37.1493 496.864 35.9973 495.798 35.1013C494.774 34.1627 493.366 33.6933 491.574 33.6933C489.27 33.6933 487.542 34.4187 486.39 35.8693C485.28 37.32 484.726 39.2187 484.726 41.5653V47.6453C484.726 49.992 485.28 51.8907 486.39 53.3413C487.542 54.7493 489.27 55.4533 491.574 55.4533C493.536 55.4533 495.051 54.9627 496.118 53.9813C497.184 52.9573 498.016 51.6987 498.614 50.2053L504.886 53.2133C503.776 56.1573 502.091 58.376 499.83 59.8693C497.568 61.32 494.816 62.0453 491.574 62.0453ZM523.818 62.0453C521.428 62.0453 519.274 61.64 517.354 60.8293C515.476 60.0187 513.855 58.8453 512.49 57.3093C511.167 55.7733 510.143 53.9387 509.418 51.8053C508.692 49.6293 508.33 47.1973 508.33 44.5093C508.33 41.8213 508.692 39.4107 509.418 37.2773C510.143 35.144 511.167 33.3307 512.49 31.8373C513.855 30.3013 515.476 29.128 517.354 28.3173C519.274 27.5067 521.428 27.1013 523.818 27.1013C526.207 27.1013 528.362 27.5067 530.282 28.3173C532.202 29.128 533.823 30.3013 535.146 31.8373C536.511 33.3307 537.556 35.144 538.282 37.2773C539.007 39.4107 539.37 41.8213 539.37 44.5093C539.37 47.1973 539.007 49.6293 538.282 51.8053C537.556 53.9387 536.511 55.7733 535.146 57.3093C533.823 58.8453 532.202 60.0187 530.282 60.8293C528.362 61.64 526.207 62.0453 523.818 62.0453ZM523.818 55.4533C525.994 55.4533 527.7 54.792 528.938 53.4693C530.175 52.1467 530.794 50.2053 530.794 47.6453V41.4373C530.794 38.92 530.175 37 528.938 35.6773C527.7 34.3547 525.994 33.6933 523.818 33.6933C521.684 33.6933 519.999 34.3547 518.762 35.6773C517.524 37 516.906 38.92 516.906 41.4373V47.6453C516.906 50.2053 517.524 52.1467 518.762 53.4693C519.999 54.792 521.684 55.4533 523.818 55.4533ZM546.312 61.2773V27.8693H554.504V33.4373H554.824C555.507 31.6453 556.574 30.152 558.024 28.9573C559.518 27.72 561.566 27.1013 564.168 27.1013C567.624 27.1013 570.27 28.232 572.104 30.4933C573.939 32.7547 574.856 35.976 574.856 40.1573V61.2773H566.664V40.9893C566.664 38.6 566.238 36.808 565.384 35.6133C564.531 34.4187 563.123 33.8213 561.16 33.8213C560.307 33.8213 559.475 33.9493 558.664 34.2053C557.896 34.4187 557.192 34.76 556.552 35.2293C555.955 35.656 555.464 36.2107 555.08 36.8933C554.696 37.5333 554.504 38.3013 554.504 39.1973V61.2773H546.312ZM594.049 61.2773C591.233 61.2773 589.078 60.552 587.585 59.1013C586.134 57.608 585.409 55.496 585.409 52.7653V34.3973H580.481V27.8693H583.041C584.278 27.8693 585.11 27.592 585.537 27.0373C586.006 26.44 586.241 25.5653 586.241 24.4133V18.7173H593.601V27.8693H600.449V34.3973H593.601V54.7493H599.937V61.2773H594.049ZM620.489 62.0453C618.014 62.0453 615.795 61.64 613.833 60.8293C611.913 59.976 610.27 58.8027 608.905 57.3093C607.582 55.7733 606.558 53.9387 605.833 51.8053C605.107 49.6293 604.745 47.1973 604.745 44.5093C604.745 41.864 605.086 39.4747 605.769 37.3413C606.494 35.208 607.518 33.3947 608.841 31.9013C610.163 30.3653 611.785 29.192 613.705 28.3813C615.625 27.528 617.801 27.1013 620.233 27.1013C622.835 27.1013 625.097 27.5493 627.017 28.4453C628.937 29.3413 630.515 30.5573 631.753 32.0933C632.99 33.6293 633.907 35.4213 634.505 37.4693C635.145 39.4747 635.465 41.6293 635.465 43.9333V46.6213H613.257V47.4533C613.257 49.8853 613.939 51.848 615.305 53.3413C616.67 54.792 618.697 55.5173 621.385 55.5173C623.433 55.5173 625.097 55.0907 626.377 54.2373C627.699 53.384 628.873 52.296 629.897 50.9733L634.313 55.9013C632.947 57.8213 631.07 59.336 628.681 60.4453C626.334 61.512 623.603 62.0453 620.489 62.0453ZM620.361 33.2453C618.185 33.2453 616.457 33.9707 615.177 35.4213C613.897 36.872 613.257 38.7493 613.257 41.0533V41.5653H626.953V40.9893C626.953 38.6853 626.377 36.8293 625.225 35.4213C624.115 33.9707 622.494 33.2453 620.361 33.2453ZM642.352 61.2773V27.8693H650.544V33.4373H650.864C651.547 31.6453 652.614 30.152 654.064 28.9573C655.558 27.72 657.606 27.1013 660.208 27.1013C663.664 27.1013 666.31 28.232 668.144 30.4933C669.979 32.7547 670.896 35.976 670.896 40.1573V61.2773H662.704V40.9893C662.704 38.6 662.278 36.808 661.424 35.6133C660.571 34.4187 659.163 33.8213 657.2 33.8213C656.347 33.8213 655.515 33.9493 654.704 34.2053C653.936 34.4187 653.232 34.76 652.592 35.2293C651.995 35.656 651.504 36.2107 651.12 36.8933C650.736 37.5333 650.544 38.3013 650.544 39.1973V61.2773H642.352ZM690.089 61.2773C687.273 61.2773 685.119 60.552 683.625 59.1013C682.175 57.608 681.449 55.496 681.449 52.7653V34.3973H676.521V27.8693H679.081C680.319 27.8693 681.151 27.592 681.577 27.0373C682.047 26.44 682.281 25.5653 682.281 24.4133V18.7173H689.641V27.8693H696.489V34.3973H689.641V54.7493H695.977V61.2773H690.089ZM728.512 61.2773C725.696 61.2773 723.541 60.552 722.048 59.1013C720.597 57.608 719.872 55.496 719.872 52.7653V34.3973H714.944V27.8693H717.504C718.741 27.8693 719.573 27.592 720 27.0373C720.469 26.44 720.704 25.5653 720.704 24.4133V18.7173H728.064V27.8693H734.912V34.3973H728.064V54.7493H734.4V61.2773H728.512ZM754.951 62.0453C752.477 62.0453 750.258 61.64 748.295 60.8293C746.375 59.976 744.733 58.8027 743.367 57.3093C742.045 55.7733 741.021 53.9387 740.295 51.8053C739.57 49.6293 739.207 47.1973 739.207 44.5093C739.207 41.864 739.549 39.4747 740.231 37.3413C740.957 35.208 741.981 33.3947 743.303 31.9013C744.626 30.3653 746.247 29.192 748.167 28.3813C750.087 27.528 752.263 27.1013 754.695 27.1013C757.298 27.1013 759.559 27.5493 761.479 28.4453C763.399 29.3413 764.978 30.5573 766.215 32.0933C767.453 33.6293 768.37 35.4213 768.967 37.4693C769.607 39.4747 769.927 41.6293 769.927 43.9333V46.6213H747.719V47.4533C747.719 49.8853 748.402 51.848 749.767 53.3413C751.133 54.792 753.159 55.5173 755.847 55.5173C757.895 55.5173 759.559 55.0907 760.839 54.2373C762.162 53.384 763.335 52.296 764.359 50.9733L768.775 55.9013C767.41 57.8213 765.533 59.336 763.143 60.4453C760.797 61.512 758.066 62.0453 754.951 62.0453ZM754.823 33.2453C752.647 33.2453 750.919 33.9707 749.639 35.4213C748.359 36.872 747.719 38.7493 747.719 41.0533V41.5653H761.415V40.9893C761.415 38.6853 760.839 36.8293 759.687 35.4213C758.578 33.9707 756.957 33.2453 754.823 33.2453ZM801.391 61.2773C799.599 61.2773 798.169 60.7653 797.103 59.7413C796.079 58.6747 795.439 57.2667 795.183 55.5173H794.799C794.244 57.6933 793.113 59.336 791.407 60.4453C789.7 61.512 787.588 62.0453 785.071 62.0453C781.657 62.0453 779.033 61.1493 777.199 59.3573C775.364 57.5653 774.447 55.176 774.447 52.1893C774.447 48.7333 775.684 46.1733 778.159 44.5093C780.633 42.8027 784.153 41.9493 788.719 41.9493H794.415V39.5173C794.415 37.64 793.924 36.1893 792.943 35.1653C791.961 34.1413 790.383 33.6293 788.207 33.6293C786.287 33.6293 784.729 34.056 783.535 34.9093C782.383 35.72 781.401 36.7013 780.591 37.8533L775.727 33.5013C776.964 31.5813 778.607 30.0453 780.655 28.8933C782.703 27.6987 785.412 27.1013 788.783 27.1013C793.305 27.1013 796.74 28.1253 799.087 30.1733C801.433 32.2213 802.607 35.1653 802.607 39.0053V54.7493H805.935V61.2773H801.391ZM787.823 56.0933C789.657 56.0933 791.215 55.688 792.495 54.8773C793.775 54.0667 794.415 52.872 794.415 51.2933V46.8773H789.167C784.9 46.8773 782.767 48.2427 782.767 50.9733V52.0613C782.767 53.4267 783.193 54.4507 784.047 55.1333C784.943 55.7733 786.201 56.0933 787.823 56.0933ZM812.245 61.2773V27.8693H820.437V33.4373H820.757C821.397 31.688 822.421 30.1947 823.829 28.9573C825.237 27.72 827.199 27.1013 829.717 27.1013C832.021 27.1013 834.005 27.656 835.669 28.7653C837.333 29.8747 838.57 31.56 839.381 33.8213H839.509C840.106 31.944 841.279 30.3653 843.029 29.0853C844.821 27.7627 847.061 27.1013 849.749 27.1013C853.034 27.1013 855.551 28.232 857.301 30.4933C859.093 32.7547 859.989 35.976 859.989 40.1573V61.2773H851.797V40.9893C851.797 36.2107 850.005 33.8213 846.421 33.8213C845.61 33.8213 844.821 33.9493 844.053 34.2053C843.327 34.4187 842.666 34.76 842.069 35.2293C841.514 35.656 841.066 36.2107 840.725 36.8933C840.383 37.5333 840.213 38.3013 840.213 39.1973V61.2773H832.021V40.9893C832.021 36.2107 830.229 33.8213 826.645 33.8213C825.877 33.8213 825.109 33.9493 824.341 34.2053C823.615 34.4187 822.954 34.76 822.357 35.2293C821.802 35.656 821.333 36.2107 820.949 36.8933C820.607 37.5333 820.437 38.3013 820.437 39.1973V61.2773H812.245ZM879.681 62.0453C876.481 62.0453 873.793 61.512 871.617 60.4453C869.441 59.336 867.521 57.8213 865.857 55.9013L870.849 51.0373C872.086 52.4453 873.43 53.5547 874.881 54.3653C876.374 55.176 878.081 55.5813 880.001 55.5813C881.964 55.5813 883.372 55.24 884.225 54.5573C885.121 53.8747 885.569 52.936 885.569 51.7413C885.569 50.76 885.249 49.992 884.609 49.4373C884.012 48.84 882.966 48.4347 881.473 48.2213L878.145 47.7733C874.518 47.304 871.745 46.28 869.825 44.7013C867.948 43.08 867.009 40.7333 867.009 37.6613C867.009 36.04 867.308 34.5893 867.905 33.3093C868.502 31.9867 869.356 30.8773 870.465 29.9813C871.574 29.0427 872.897 28.3387 874.433 27.8693C876.012 27.3573 877.761 27.1013 879.681 27.1013C881.302 27.1013 882.732 27.2293 883.969 27.4853C885.249 27.6987 886.401 28.04 887.425 28.5093C888.449 28.936 889.388 29.4907 890.241 30.1733C891.094 30.8133 891.926 31.5387 892.737 32.3493L887.937 37.1493C886.956 36.1253 885.782 35.272 884.417 34.5893C883.052 33.9067 881.558 33.5653 879.937 33.5653C878.145 33.5653 876.844 33.8853 876.033 34.5253C875.265 35.1653 874.881 35.9973 874.881 37.0213C874.881 38.1307 875.201 38.984 875.841 39.5813C876.524 40.136 877.654 40.5413 879.233 40.7973L882.625 41.2453C889.836 42.2693 893.441 45.5547 893.441 51.1013C893.441 52.7227 893.1 54.216 892.417 55.5813C891.777 56.904 890.86 58.056 889.665 59.0373C888.47 59.976 887.02 60.7227 885.313 61.2773C883.649 61.7893 881.772 62.0453 879.681 62.0453ZM113.583 135.277C110.767 135.277 108.612 134.552 107.119 133.101C105.668 131.608 104.943 129.496 104.943 126.765V108.397H100.015V101.869H102.575C103.812 101.869 104.644 101.592 105.071 101.037C105.54 100.44 105.775 99.5653 105.775 98.4133V92.7173H113.135V101.869H119.983V108.397H113.135V128.749H119.471V135.277H113.583ZM139.766 136.045C137.377 136.045 135.222 135.64 133.302 134.829C131.425 134.019 129.804 132.845 128.438 131.309C127.116 129.773 126.092 127.939 125.366 125.805C124.641 123.629 124.278 121.197 124.278 118.509C124.278 115.821 124.641 113.411 125.366 111.277C126.092 109.144 127.116 107.331 128.438 105.837C129.804 104.301 131.425 103.128 133.302 102.317C135.222 101.507 137.377 101.101 139.766 101.101C142.156 101.101 144.31 101.507 146.23 102.317C148.15 103.128 149.772 104.301 151.094 105.837C152.46 107.331 153.505 109.144 154.23 111.277C154.956 113.411 155.318 115.821 155.318 118.509C155.318 121.197 154.956 123.629 154.23 125.805C153.505 127.939 152.46 129.773 151.094 131.309C149.772 132.845 148.15 134.019 146.23 134.829C144.31 135.64 142.156 136.045 139.766 136.045ZM139.766 129.453C141.942 129.453 143.649 128.792 144.886 127.469C146.124 126.147 146.742 124.205 146.742 121.645V115.437C146.742 112.92 146.124 111 144.886 109.677C143.649 108.355 141.942 107.693 139.766 107.693C137.633 107.693 135.948 108.355 134.71 109.677C133.473 111 132.854 112.92 132.854 115.437V121.645C132.854 124.205 133.473 126.147 134.71 127.469C135.948 128.792 137.633 129.453 139.766 129.453ZM197.802 129.709H197.482C196.885 131.629 195.754 133.165 194.09 134.317C192.426 135.469 190.485 136.045 188.266 136.045C184.042 136.045 180.799 134.531 178.538 131.501C176.319 128.472 175.21 124.141 175.21 118.509C175.21 112.92 176.319 108.632 178.538 105.645C180.799 102.616 184.042 101.101 188.266 101.101C190.485 101.101 192.426 101.677 194.09 102.829C195.754 103.939 196.885 105.453 197.482 107.373H197.802V87.9173H205.994V135.277H197.802V129.709ZM190.89 129.261C192.853 129.261 194.495 128.792 195.818 127.853C197.141 126.915 197.802 125.571 197.802 123.821V113.197C197.802 111.576 197.141 110.275 195.818 109.293C194.495 108.312 192.853 107.821 190.89 107.821C188.757 107.821 187.029 108.547 185.706 109.997C184.426 111.405 183.786 113.304 183.786 115.693V121.453C183.786 123.843 184.426 125.741 185.706 127.149C187.029 128.557 188.757 129.261 190.89 129.261ZM215.121 135.277V101.869H223.313V108.781H223.633C223.846 107.885 224.166 107.032 224.593 106.221C225.062 105.368 225.66 104.621 226.385 103.981C227.11 103.341 227.964 102.829 228.945 102.445C229.969 102.061 231.142 101.869 232.465 101.869H234.257V109.613H231.697C228.924 109.613 226.833 110.019 225.425 110.829C224.017 111.64 223.313 112.963 223.313 114.797V135.277H215.121ZM244.022 97.0053C242.315 97.0053 241.078 96.6213 240.31 95.8533C239.585 95.0853 239.222 94.104 239.222 92.9093V91.6293C239.222 90.4347 239.585 89.4533 240.31 88.6853C241.078 87.9173 242.315 87.5333 244.022 87.5333C245.686 87.5333 246.902 87.9173 247.67 88.6853C248.438 89.4533 248.822 90.4347 248.822 91.6293V92.9093C248.822 94.104 248.438 95.0853 247.67 95.8533C246.902 96.6213 245.686 97.0053 244.022 97.0053ZM239.926 101.869H248.118V135.277H239.926V101.869ZM264.461 135.277L253.325 101.869H261.389L266.061 116.269L269.325 128.173H269.773L273.037 116.269L277.581 101.869H285.389L274.189 135.277H264.461ZM303.54 136.045C301.065 136.045 298.847 135.64 296.884 134.829C294.964 133.976 293.321 132.803 291.956 131.309C290.633 129.773 289.609 127.939 288.884 125.805C288.159 123.629 287.796 121.197 287.796 118.509C287.796 115.864 288.137 113.475 288.82 111.341C289.545 109.208 290.569 107.395 291.892 105.901C293.215 104.365 294.836 103.192 296.756 102.381C298.676 101.528 300.852 101.101 303.284 101.101C305.887 101.101 308.148 101.549 310.068 102.445C311.988 103.341 313.567 104.557 314.804 106.093C316.041 107.629 316.959 109.421 317.556 111.469C318.196 113.475 318.516 115.629 318.516 117.933V120.621H296.308V121.453C296.308 123.885 296.991 125.848 298.356 127.341C299.721 128.792 301.748 129.517 304.436 129.517C306.484 129.517 308.148 129.091 309.428 128.237C310.751 127.384 311.924 126.296 312.948 124.973L317.364 129.901C315.999 131.821 314.121 133.336 311.732 134.445C309.385 135.512 306.655 136.045 303.54 136.045ZM303.412 107.245C301.236 107.245 299.508 107.971 298.228 109.421C296.948 110.872 296.308 112.749 296.308 115.053V115.565H310.004V114.989C310.004 112.685 309.428 110.829 308.276 109.421C307.167 107.971 305.545 107.245 303.412 107.245ZM340.208 87.9173H348.4V107.373H348.656C349.254 105.453 350.384 103.939 352.048 102.829C353.712 101.677 355.654 101.101 357.872 101.101C362.139 101.101 365.382 102.616 367.6 105.645C369.862 108.632 370.992 112.92 370.992 118.509C370.992 124.141 369.862 128.472 367.6 131.501C365.382 134.531 362.139 136.045 357.872 136.045C355.654 136.045 353.712 135.469 352.048 134.317C350.427 133.165 349.296 131.629 348.656 129.709H348.4V135.277H340.208V87.9173ZM355.248 129.261C357.382 129.261 359.11 128.557 360.432 127.149C361.755 125.741 362.416 123.843 362.416 121.453V115.693C362.416 113.304 361.755 111.405 360.432 109.997C359.11 108.547 357.382 107.821 355.248 107.821C353.286 107.821 351.643 108.312 350.32 109.293C349.04 110.275 348.4 111.576 348.4 113.197V123.821C348.4 125.571 349.04 126.915 350.32 127.853C351.643 128.792 353.286 129.261 355.248 129.261ZM398.231 129.709H397.911C397.613 130.563 397.207 131.373 396.695 132.141C396.226 132.867 395.607 133.528 394.839 134.125C394.114 134.723 393.218 135.192 392.151 135.533C391.127 135.875 389.933 136.045 388.567 136.045C385.111 136.045 382.466 134.915 380.631 132.653C378.797 130.392 377.879 127.171 377.879 122.989V101.869H386.071V122.157C386.071 124.461 386.519 126.232 387.415 127.469C388.311 128.664 389.741 129.261 391.703 129.261C392.514 129.261 393.303 129.155 394.071 128.941C394.882 128.728 395.586 128.408 396.183 127.981C396.781 127.512 397.271 126.957 397.655 126.317C398.039 125.635 398.231 124.845 398.231 123.949V101.869H406.423V135.277H398.231V129.709ZM426.512 136.045C423.312 136.045 420.624 135.512 418.448 134.445C416.272 133.336 414.352 131.821 412.688 129.901L417.68 125.037C418.918 126.445 420.262 127.555 421.712 128.365C423.206 129.176 424.912 129.581 426.832 129.581C428.795 129.581 430.203 129.24 431.056 128.557C431.952 127.875 432.4 126.936 432.4 125.741C432.4 124.76 432.08 123.992 431.44 123.437C430.843 122.84 429.798 122.435 428.304 122.221L424.976 121.773C421.35 121.304 418.576 120.28 416.656 118.701C414.779 117.08 413.84 114.733 413.84 111.661C413.84 110.04 414.139 108.589 414.736 107.309C415.334 105.987 416.187 104.877 417.296 103.981C418.406 103.043 419.728 102.339 421.264 101.869C422.843 101.357 424.592 101.101 426.512 101.101C428.134 101.101 429.563 101.229 430.8 101.485C432.08 101.699 433.232 102.04 434.256 102.509C435.28 102.936 436.219 103.491 437.072 104.173C437.926 104.813 438.758 105.539 439.568 106.349L434.768 111.149C433.787 110.125 432.614 109.272 431.248 108.589C429.883 107.907 428.39 107.565 426.768 107.565C424.976 107.565 423.675 107.885 422.864 108.525C422.096 109.165 421.712 109.997 421.712 111.021C421.712 112.131 422.032 112.984 422.672 113.581C423.355 114.136 424.486 114.541 426.064 114.797L429.456 115.245C436.667 116.269 440.272 119.555 440.272 125.101C440.272 126.723 439.931 128.216 439.248 129.581C438.608 130.904 437.691 132.056 436.496 133.037C435.302 133.976 433.851 134.723 432.144 135.277C430.48 135.789 428.603 136.045 426.512 136.045ZM451.282 97.0053C449.575 97.0053 448.338 96.6213 447.57 95.8533C446.845 95.0853 446.482 94.104 446.482 92.9093V91.6293C446.482 90.4347 446.845 89.4533 447.57 88.6853C448.338 87.9173 449.575 87.5333 451.282 87.5333C452.946 87.5333 454.162 87.9173 454.93 88.6853C455.698 89.4533 456.082 90.4347 456.082 91.6293V92.9093C456.082 94.104 455.698 95.0853 454.93 95.8533C454.162 96.6213 452.946 97.0053 451.282 97.0053ZM447.186 101.869H455.378V135.277H447.186V101.869ZM464.553 135.277V101.869H472.745V107.437H473.065C473.748 105.645 474.815 104.152 476.265 102.957C477.759 101.72 479.807 101.101 482.409 101.101C485.865 101.101 488.511 102.232 490.345 104.493C492.18 106.755 493.097 109.976 493.097 114.157V135.277H484.905V114.989C484.905 112.6 484.479 110.808 483.625 109.613C482.772 108.419 481.364 107.821 479.401 107.821C478.548 107.821 477.716 107.949 476.905 108.205C476.137 108.419 475.433 108.76 474.793 109.229C474.196 109.656 473.705 110.211 473.321 110.893C472.937 111.533 472.745 112.301 472.745 113.197V135.277H464.553ZM515.362 136.045C512.888 136.045 510.669 135.64 508.706 134.829C506.786 133.976 505.144 132.803 503.778 131.309C502.456 129.773 501.432 127.939 500.706 125.805C499.981 123.629 499.618 121.197 499.618 118.509C499.618 115.864 499.96 113.475 500.642 111.341C501.368 109.208 502.392 107.395 503.714 105.901C505.037 104.365 506.658 103.192 508.578 102.381C510.498 101.528 512.674 101.101 515.106 101.101C517.709 101.101 519.97 101.549 521.89 102.445C523.81 103.341 525.389 104.557 526.626 106.093C527.864 107.629 528.781 109.421 529.378 111.469C530.018 113.475 530.338 115.629 530.338 117.933V120.621H508.13V121.453C508.13 123.885 508.813 125.848 510.178 127.341C511.544 128.792 513.57 129.517 516.258 129.517C518.306 129.517 519.97 129.091 521.25 128.237C522.573 127.384 523.746 126.296 524.77 124.973L529.186 129.901C527.821 131.821 525.944 133.336 523.554 134.445C521.208 135.512 518.477 136.045 515.362 136.045ZM515.234 107.245C513.058 107.245 511.33 107.971 510.05 109.421C508.77 110.872 508.13 112.749 508.13 115.053V115.565H521.826V114.989C521.826 112.685 521.25 110.829 520.098 109.421C518.989 107.971 517.368 107.245 515.234 107.245ZM548.17 136.045C544.97 136.045 542.282 135.512 540.106 134.445C537.93 133.336 536.01 131.821 534.346 129.901L539.338 125.037C540.575 126.445 541.919 127.555 543.37 128.365C544.863 129.176 546.57 129.581 548.49 129.581C550.453 129.581 551.861 129.24 552.714 128.557C553.61 127.875 554.058 126.936 554.058 125.741C554.058 124.76 553.738 123.992 553.098 123.437C552.501 122.84 551.455 122.435 549.962 122.221L546.634 121.773C543.007 121.304 540.234 120.28 538.314 118.701C536.437 117.08 535.498 114.733 535.498 111.661C535.498 110.04 535.797 108.589 536.394 107.309C536.991 105.987 537.845 104.877 538.954 103.981C540.063 103.043 541.386 102.339 542.922 101.869C544.501 101.357 546.25 101.101 548.17 101.101C549.791 101.101 551.221 101.229 552.458 101.485C553.738 101.699 554.89 102.04 555.914 102.509C556.938 102.936 557.877 103.491 558.73 104.173C559.583 104.813 560.415 105.539 561.226 106.349L556.426 111.149C555.445 110.125 554.271 109.272 552.906 108.589C551.541 107.907 550.047 107.565 548.426 107.565C546.634 107.565 545.333 107.885 544.522 108.525C543.754 109.165 543.37 109.997 543.37 111.021C543.37 112.131 543.69 112.984 544.33 113.581C545.013 114.136 546.143 114.541 547.722 114.797L551.114 115.245C558.325 116.269 561.93 119.555 561.93 125.101C561.93 126.723 561.589 128.216 560.906 129.581C560.266 130.904 559.349 132.056 558.154 133.037C556.959 133.976 555.509 134.723 553.802 135.277C552.138 135.789 550.261 136.045 548.17 136.045ZM579.35 136.045C576.15 136.045 573.462 135.512 571.286 134.445C569.11 133.336 567.19 131.821 565.526 129.901L570.518 125.037C571.755 126.445 573.099 127.555 574.55 128.365C576.043 129.176 577.75 129.581 579.67 129.581C581.633 129.581 583.041 129.24 583.894 128.557C584.79 127.875 585.238 126.936 585.238 125.741C585.238 124.76 584.918 123.992 584.278 123.437C583.681 122.84 582.635 122.435 581.142 122.221L577.814 121.773C574.187 121.304 571.414 120.28 569.494 118.701C567.617 117.08 566.678 114.733 566.678 111.661C566.678 110.04 566.977 108.589 567.574 107.309C568.171 105.987 569.025 104.877 570.134 103.981C571.243 103.043 572.566 102.339 574.102 101.869C575.681 101.357 577.43 101.101 579.35 101.101C580.971 101.101 582.401 101.229 583.638 101.485C584.918 101.699 586.07 102.04 587.094 102.509C588.118 102.936 589.057 103.491 589.91 104.173C590.763 104.813 591.595 105.539 592.406 106.349L587.606 111.149C586.625 110.125 585.451 109.272 584.086 108.589C582.721 107.907 581.227 107.565 579.606 107.565C577.814 107.565 576.513 107.885 575.702 108.525C574.934 109.165 574.55 109.997 574.55 111.021C574.55 112.131 574.87 112.984 575.51 113.581C576.193 114.136 577.323 114.541 578.902 114.797L582.294 115.245C589.505 116.269 593.11 119.555 593.11 125.101C593.11 126.723 592.769 128.216 592.086 129.581C591.446 130.904 590.529 132.056 589.334 133.037C588.139 133.976 586.689 134.723 584.982 135.277C583.318 135.789 581.441 136.045 579.35 136.045Z" fill="white"/>
</svg>
